<?xml version="1.0" encoding="UTF-8"?>
<svg width="150px" height="150px" viewBox="0 0 150 150" version="1.1" xmlns="http://www.w3.org/2000/svg" xmlns:xlink="http://www.w3.org/1999/xlink">
    <!-- Generator: Sketch 52.5 (67469) - http://www.bohemiancoding.com/sketch -->
    <title>Group 10</title>
    <desc>Created with Sketch.</desc>
    <g id="Page-1" stroke="none" stroke-width="1" fill="none" fill-rule="evenodd">
        <g id="Courses-Problem-solving-Copy-2" transform="translate(-445.000000, -2647.000000)">
            <g id="Educational-Video" transform="translate(336.000000, 2623.000000)">
                <g id="Group-7-Copy-2">
                    <g id="Group" transform="translate(27.000000, 24.000000)">
                        <g id="Group-10" transform="translate(82.000000, 0.000000)">
                            <g id="Icon-placeholder" fill="#52B0CC" fill-rule="nonzero">
                                <rect id="Rectangle" x="0" y="0" width="150" height="150" rx="75"></rect>
                            </g>
                            <g id="noun_youtube_2011137" transform="translate(35.000000, 35.000000)" fill="#FFFFFF">
                                <g id="Group">
                                    <path d="M68.5106383,0.421875 L11.4893617,0.421875 C5.44680851,0.421875 0.595744681,5.315625 0.595744681,11.30625 L0.595744681,48.6 C0.595744681,54.590625 5.53191489,59.484375 11.5744681,59.484375 L68.5106383,59.484375 C74.5531915,59.484375 79.4893617,54.590625 79.4893617,48.6 L79.4893617,11.30625 C79.4042553,5.315625 74.5531915,0.421875 68.5106383,0.421875 Z M51.0638298,31.809375 L33.787234,43.115625 C32.3404255,44.128125 30.2978723,43.03125 30.2978723,41.259375 L30.2978723,18.5625 C30.2978723,16.790625 32.2553191,15.778125 33.787234,16.70625 L51.0638298,28.096875 C52.4255319,28.940625 52.4255319,30.88125 51.0638298,31.809375 Z" id="Shape" fill-rule="nonzero"></path>
                                    <path d="M76.5106383,69.609375 L30.4680851,69.609375 C29.2765957,66.571875 26.2978723,64.378125 22.8085106,64.378125 C19.3191489,64.378125 16.3404255,66.571875 15.1489362,69.609375 L3.4893617,69.609375 C1.87234043,69.609375 0.595744681,70.875 0.595744681,72.478125 C0.595744681,74.08125 1.87234043,75.346875 3.4893617,75.346875 L15.2340426,75.346875 C16.4255319,78.384375 19.4042553,80.578125 22.893617,80.578125 C26.3829787,80.578125 29.3617021,78.384375 30.5531915,75.346875 L76.6808511,75.346875 C78.2978723,75.346875 79.5744681,74.08125 79.5744681,72.478125 C79.4042553,70.875 78.1276596,69.609375 76.5106383,69.609375 Z" id="Path"></path>
                                </g>
                            </g>
                        </g>
                    </g>
                </g>
            </g>
        </g>
    </g>
</svg>