<?xml version="1.0" encoding="UTF-8"?>
<svg width="150px" height="152px" viewBox="0 0 150 152" version="1.1" xmlns="http://www.w3.org/2000/svg" xmlns:xlink="http://www.w3.org/1999/xlink">
    <!-- Generator: Sketch 52.5 (67469) - http://www.bohemiancoding.com/sketch -->
    <title>Group 8</title>
    <desc>Created with Sketch.</desc>
    <g id="Page-1" stroke="none" stroke-width="1" fill="none" fill-rule="evenodd">
        <g id="Courses-Problem-solving-Copy-2" transform="translate(-645.000000, -2106.000000)">
            <g id="Interactive-Videos" transform="translate(536.000000, 2082.000000)">
                <g id="Group-7-Copy-3">
                    <g id="Group" transform="translate(27.000000, 24.259740)">
                        <g id="Group-8" transform="translate(82.000000, 0.000000)">
                            <g id="Icon-placeholder" transform="translate(0.000000, 0.000000)" fill="#52B0CC" fill-rule="nonzero">
                                <rect id="Rectangle" x="0" y="0" width="150" height="151.623377" rx="75"></rect>
                            </g>
                            <g id="noun_touch_1324749" transform="translate(42.000000, 28.740260)" fill="#FFFFFF">
                                <g id="Group">
                                    <path d="M13.7,29.3 L13.7,16.9 C13.7,11.4 18.2,6.9 23.7,6.9 C29.2,6.9 33.7,11.4 33.7,16.9 L33.7,29.2 C37.4,26.3 39.8,21.7 39.8,16.6 C39.8,7.7 32.6,0.5 23.7,0.5 C14.8,0.5 7.5,7.7 7.5,16.6 C7.5,21.7 9.9,26.3 13.7,29.3 Z" id="Path"></path>
                                    <path d="M60.6,43.2 C56.9,42.7 53.8,45.6 53.8,49.2 L53.8,46.2 C53.8,43.1 51.6,40.4 48.6,40 C44.9,39.5 41.8,42.4 41.8,46 L41.8,43 C41.8,39.9 39.6,37.2 36.6,36.8 C32.9,36.3 29.8,39.2 29.8,42.8 L29.8,16.9 C29.8,13.6 27.1,10.9 23.8,10.9 C20.5,10.9 17.8,13.6 17.8,16.9 L17.8,63.3 C17.8,64 16.9,64.2 16.5,63.6 C14.3,59.8 11.6,54.5 11.6,54.4 C10.2,51.5 6.6,50.3 3.7,51.7 C0.8,53.1 -0.4,56.7 1,59.6 C1.2,59.9 6.4,70.4 11.3,77.4 C17.6,86.3 23,90.5 25.7,92.3 C28.4,94.2 31.2,95.3 32.9,95.3 C34.7,95.3 48.2,95.3 48.2,95.3 C50.9,95.3 53.3,94 54.9,91.7 L57.7,87.6 C63.1,79.8 66,70.2 66,60.4 L66,49.4 C65.8,46.3 63.6,43.6 60.6,43.2 Z" id="Path"></path>
                                </g>
                            </g>
                        </g>
                    </g>
                </g>
            </g>
        </g>
    </g>
</svg>