<?xml version="1.0" encoding="UTF-8"?>
<svg width="167px" height="166px" viewBox="0 0 167 166" version="1.1" xmlns="http://www.w3.org/2000/svg" xmlns:xlink="http://www.w3.org/1999/xlink">
    <!-- Generator: Sketch 52.5 (67469) - http://www.bohemiancoding.com/sketch -->
    <title>Group 8</title>
    <desc>Created with Sketch.</desc>
    <g id="Page-1" stroke="none" stroke-width="1" fill="none" fill-rule="evenodd">
        <g id="Courses-Theme1" transform="translate(-1082.000000, -1299.000000)">
            <g id="Group-8" transform="translate(1082.000000, 1299.000000)">
                <ellipse id="Oval-Copy-3" fill="#52B0CC" fill-rule="nonzero" cx="83.5" cy="83" rx="83.5" ry="83"></ellipse>
                <g id="noun_frequency_1122519" transform="translate(25.000000, 54.000000)" fill="#FFFFFF">
                    <path d="M102.042698,33 L87.9567448,33 C86.8766217,33 86,32.1363855 86,31.0722892 C86,30.3320482 86.0456574,29.5995181 86.1369721,28.8965462 C86.7122551,20.0213655 87.2966695,14.1598394 87.9254369,10.9804016 C88.3611387,8.53863454 89.7034656,1 94.8679674,1 C99.8459261,1 101.369578,8.15052209 101.8692,10.5036145 C102.548843,13.9773494 103.176306,19.8967068 103.798551,28.6292369 C103.841599,29.4594378 103.90291,30.1906827 103.985094,30.8358233 C104.054232,31.3858635 103.880734,31.9371888 103.508952,32.3522892 C103.138475,32.7648193 102.603632,33 102.042698,33 Z M90.0426347,29.1445783 L99.908542,29.1445783 C99.903324,29.0494779 99.898106,28.9543775 99.892888,28.8554217 C99.2941241,20.4364659 98.6679658,14.5055422 98.035285,11.2605622 C97.0295181,6.5415261 95.6989317,4.85542169 94.8679674,4.85542169 C94.0017817,4.85542169 92.6711952,6.64305221 91.7723971,11.6808032 C91.1788512,14.6918876 90.5983503,20.5559839 90.0426347,29.1445783 Z" id="Shape" fill-rule="nonzero"></path>
                    <path d="M74.0423495,33 L59.9565432,33 C58.8765313,33 58,32.1258537 58,31.0487805 C58,30.3905691 58.0234785,29.7557724 58.0691312,29.1456911 C58.7213122,20.3678049 59.3682758,14.2344715 59.9904566,10.9186992 C60.8617705,6.64552846 62.5078754,1 66.8057486,1 C71.9971097,1 73.460604,8.3495935 73.9419136,10.7665041 C74.5758336,14.2422764 75.182362,20.2481301 75.801934,29.1586992 C75.8045427,29.2042276 75.8071514,29.2497561 75.8071514,29.2939837 C75.8071514,29.723252 75.8580216,30.175935 75.9571531,30.6429268 C76.0797631,31.219187 75.9362833,31.8188618 75.5645401,32.276748 C75.1914925,32.735935 74.6332255,33 74.0423495,33 Z M61.9978698,29.097561 L71.8744997,29.097561 C71.2810149,20.6318699 70.6823127,14.7092683 70.0966541,11.4962602 C69.1314262,6.64422764 67.7605416,4.90373984 66.8057486,4.90373984 C66.7874875,4.90373984 65.193557,4.98308943 63.8304986,11.6666667 C63.2487531,14.7717073 62.6317898,20.6422764 61.9978698,29.097561 Z" id="Shape" fill-rule="nonzero"></path>
                    <path d="M80.5322939,58 C75.6684433,58 74.183823,50.7526673 73.6961647,48.3743938 C73.1168317,45.2150016 72.5667837,39.8997737 72.0052763,32.0821209 C71.9658053,31.5441319 72.1491546,31.0164888 72.509487,30.6194633 C72.8723659,30.2250242 73.3778498,30 73.9100722,30 L87.0908526,30 C87.6205284,30 88.1260124,30.2250242 88.4863448,30.6168768 C88.8466771,31.0087294 89.0312997,31.5363725 88.9956485,32.0743615 C88.4761587,39.8182994 87.9019187,45.1309408 87.2372774,48.3136114 C86.8145553,50.6698998 85.5018249,58 80.5322939,58 Z M75.9689325,33.8797284 C76.4616839,40.3485289 76.9557085,44.9654058 77.4433668,47.6230197 C78.4237765,52.4067249 79.7212277,54.1189783 80.5322939,54.1189783 C81.3535461,54.1189783 82.6217124,52.4015519 83.488802,47.5648238 C84.0554024,44.8373747 84.5736189,40.252829 85.0383586,33.8797284 L75.9689325,33.8797284 Z" id="Shape" fill-rule="nonzero"></path>
                    <path d="M108.795789,57 C103.85751,57 102.270488,49.6639502 101.750669,47.2509484 C101.110084,44.0524097 100.540383,38.7805255 100.004813,31.1061309 C99.966745,30.5605826 100.15577,30.0255257 100.527257,29.6255445 C100.898743,29.228186 101.4225,29 101.968573,29 L115.030989,29 C116.117883,29 117,29.8812702 117,30.967121 C117,32.0529718 116.117883,32.934242 115.030989,32.934242 L104.08329,32.934242 C104.559791,39.2355862 105.070421,43.7770128 105.605992,46.4509859 C106.733578,51.6664793 108.142077,53.0644466 108.795789,53.0644466 C108.941496,53.0644466 109.14496,53.0369069 109.425872,52.8205236 C110.286986,52.1569482 111.523525,52.3130064 112.187738,53.1719826 C112.854576,54.0322702 112.695743,55.2676221 111.835941,55.932509 C110.918382,56.6406726 109.894497,57 108.795789,57 Z" id="Path"></path>
                    <path d="M53.4046064,58 C48.5216608,58 47.0965131,50.7077689 46.6265583,48.3131509 C46.0967447,45.1856972 45.5541951,39.7397475 45.0052777,32.0772279 C44.9657964,31.5405032 45.1491934,31.0141001 45.5096195,30.6180076 C45.8725927,30.2244954 46.3782081,30 46.9105689,30 L60.0909561,30 C60.6182225,30 61.1212907,30.221915 61.4817168,30.6102663 C61.8421429,31.001198 62.0293607,31.5224403 61.9962473,32.0565846 C61.5186509,39.8765091 60.9659127,45.2411759 60.3049193,48.4589439 C59.857889,50.7980831 58.483685,58 53.4046064,58 Z M48.9674174,33.8719012 C49.4552026,40.3177587 49.932799,44.9341075 50.3849236,47.6074095 C51.3222861,52.4082573 52.5984237,54.129389 53.4046064,54.129389 C54.3343274,54.129389 55.6537671,52.4405124 56.5592899,47.6990139 C57.1209432,44.9599115 57.6214643,40.3229195 58.0519378,33.8719012 L48.9674174,33.8719012 Z" id="Shape" fill-rule="nonzero"></path>
                    <path d="M47.0367529,33 L32.963684,33 C31.8797304,33 31,32.1295451 31,31.0570204 C31,30.2901911 31.0484375,29.5117039 31.1453126,28.7448747 C31.7566729,19.9082034 32.4138525,13.9872969 33.1391065,10.7541788 C33.560644,8.36301854 34.9653326,0.738766549 40.2345514,1.00689774 C44.4813454,1.0703684 46.1609498,6.64153861 47.0563898,10.8383746 C47.7384427,14.3098315 48.349803,20.3006853 48.9284352,29.1852834 C48.9336717,29.827762 48.9546177,30.3640243 48.9952005,30.9210118 C49.033165,31.4572742 48.8446514,31.9883553 48.4741696,32.3834278 C48.0997605,32.777205 47.581348,33 47.0367529,33 Z M35.0517347,29.1140408 L44.9932124,29.1140408 C44.4407626,20.7449799 43.8398753,14.8150062 43.2088782,11.6090898 C41.7924074,4.97057614 40.1795683,4.89156164 40.1638588,4.89156164 C40.1154213,4.89156164 40.0669837,4.89156164 40.0185462,4.88638036 C39.1257245,4.88638036 37.8584938,6.62210881 36.9905454,11.5093502 C36.2993286,14.5973925 35.652622,20.4923926 35.0517347,29.1140408 Z" id="Shape" fill-rule="nonzero"></path>
                    <path d="M19.0140789,33 L1.98753438,33 C0.890415401,33 0,32.1251652 0,31.0472438 C0,29.9693224 0.890415401,29.0944876 1.98753438,29.0944876 L16.9218677,29.0944876 L16.8953672,28.6115059 C16.3282574,19.9790218 15.7359722,13.9684382 15.1357368,10.7672199 C14.2559216,5.79940818 12.9176484,3.96511921 12.0378332,3.90002733 C10.9433643,3.81801157 10.1258251,2.87808493 10.2079766,1.80537086 C10.291453,0.730053126 11.2613698,-0.07057691 12.3399384,0.00492966245 C17.3273247,0.381160687 18.6231971,7.68056331 19.0485295,10.0785479 C19.6832155,13.4607216 20.2781507,19.4530794 20.8624859,28.3862881 L20.9976382,30.9522097 C21.0241386,31.485963 20.8267102,32.0079999 20.4517287,32.3959474 C20.0780723,32.7812913 19.5573383,33 19.0140789,33 Z" id="Path"></path>
                    <path d="M25.2661659,57 C25.2559802,57 25.1884998,57 25.1795873,57 C20.2331479,56.8042141 18.9255563,49.4035055 18.4952097,46.9705389 C17.9260827,43.9267201 17.4384415,38.7214246 17.003002,31.0727205 C16.9737181,30.5349618 17.1596074,30.007645 17.5199272,29.6147679 C17.880247,29.2218907 18.3831668,29 18.9102777,29 L32.0905971,29 C32.6228009,29 33.1320868,29.2297222 33.4936798,29.6291255 C33.8539995,30.0324445 34.0360693,30.5702032 33.9940532,31.1131829 C33.3867297,38.9263472 32.7704938,44.2217043 32.1096953,47.3059855 C31.6500648,49.6736901 30.2329767,57 25.2661659,57 Z M20.9397821,32.9170241 C21.3281126,39.1965318 21.7699181,43.6774194 22.2499201,46.2552676 C23.1271651,51.2138728 24.4182048,53.0281559 25.2687123,53.0842812 C26.1141269,53.0816707 27.4293578,51.3587544 28.3677171,46.5045683 C28.9317512,43.8784263 29.4843264,39.32314 30.0165302,32.9170241 L20.9397821,32.9170241 Z" id="Shape" fill-rule="nonzero"></path>
                </g>
            </g>
        </g>
    </g>
</svg>