<?xml version="1.0" encoding="UTF-8"?>
<svg width="150px" height="150px" viewBox="0 0 150 150" version="1.1" xmlns="http://www.w3.org/2000/svg" xmlns:xlink="http://www.w3.org/1999/xlink">
    <!-- Generator: Sketch 52.5 (67469) - http://www.bohemiancoding.com/sketch -->
    <title>Group 9</title>
    <desc>Created with Sketch.</desc>
    <g id="Page-1" stroke="none" stroke-width="1" fill="none" fill-rule="evenodd">
        <g id="Courses-Problem-solving-Copy-2" transform="translate(-1046.000000, -2106.000000)">
            <g id="Work-it-out" transform="translate(937.000000, 2082.000000)">
                <g id="Group-7-Copy-4">
                    <g id="Group" transform="translate(27.000000, 24.000000)">
                        <g id="Group-9" transform="translate(82.000000, 0.000000)">
                            <g id="Icon-placeholder" fill="#52B0CC" fill-rule="nonzero">
                                <rect id="Rectangle" x="0" y="0" width="150" height="150" rx="75"></rect>
                            </g>
                            <g id="noun_check-list_843495" transform="translate(42.000000, 29.000000)" fill="#FFFFFF">
                                <g id="Group">
                                    <path d="M14.2,31.7 L13.8,32.2 C13.3,32.7 13.3,33.5 13.8,34 L17,37.2 L17.5,37.7 C18,38.2 18.8,38.2 19.3,37.7 L26,31 C26.5,30.5 26.5,29.7 26,29.2 L25.5,28.7 C25,28.2 24.2,28.2 23.7,28.7 L18.3,34 L16,31.7 C15.5,31.2 14.7,31.2 14.2,31.7 Z" id="Path"></path>
                                    <path d="M26,41.6 L25.5,41.1 C25,40.6 24.2,40.6 23.7,41.1 L18.3,46.5 L16,44.2 C15.5,43.7 14.7,43.7 14.2,44.2 L13.8,44.7 C13.3,45.2 13.3,46 13.8,46.5 L17,49.7 L17.5,50.2 C18,50.7 18.8,50.7 19.3,50.2 L26,43.5 C26.5,42.9 26.5,42.1 26,41.6 Z" id="Path"></path>
                                    <path d="M26,54 L25.5,53.5 C25,53 24.2,53 23.7,53.5 L18.3,58.9 L16,56.6 C15.5,56.1 14.7,56.1 14.2,56.6 L13.8,57.1 C13.3,57.6 13.3,58.4 13.8,58.9 L17,62.1 L17.5,62.6 C18,63.1 18.8,63.1 19.3,62.6 L26,55.9 C26.5,55.3 26.5,54.5 26,54 Z" id="Path"></path>
                                    <path d="M25.5,66 C25,65.5 24.2,65.5 23.7,66 L18.3,71.4 L16,69.1 C15.5,68.6 14.7,68.6 14.2,69.1 L13.8,69.6 C13.3,70.1 13.3,70.9 13.8,71.4 L17,74.6 L17.5,75.1 C18,75.6 18.8,75.6 19.3,75.1 L26,68.4 C26.5,67.9 26.5,67.1 26,66.6 L25.5,66 Z" id="Path"></path>
                                    <path d="M54.6,10.6 L50,10.6 L50,16.4 L54.6,16.4 C57.6,16.4 60,18.8 60,21.8 L60,80.8 C60,83.8 57.6,86.2 54.6,86.2 L11.4,86.2 C8.4,86.2 6,83.8 6,80.8 L6,21.8 C6,18.8 8.4,16.4 11.4,16.4 L16,16.4 L16,10.6 L11.4,10.6 C5.2,10.6 0.2,15.6 0.2,21.8 L0.2,80.8 C0.2,87 5.2,92 11.4,92 L54.5,92 C60.7,92 65.7,87 65.7,80.8 L65.7,21.8 C65.8,15.7 60.7,10.6 54.6,10.6 Z" id="Path"></path>
                                    <path d="M19.9,18.4 L46.1,18.4 C46.7,18.4 47.1,17.9 47.1,17.4 L47.1,9.9 C47.1,9.2 46.6,8.5 46,8.3 L38,6.4 L38,5 C38,2.2 35.7,0 33,0 C30.2,0 28,2.3 28,5 L28,6.4 L20,8.3 C19.3,8.5 18.9,9.2 18.9,9.9 L18.9,17.4 C18.9,17.9 19.4,18.4 19.9,18.4 Z M33,2.5 C34.2,2.5 35.1,3.4 35.1,4.6 C35.1,5.8 34.2,6.7 33,6.7 C31.8,6.7 30.9,5.8 30.9,4.6 C30.9,3.5 31.8,2.5 33,2.5 Z" id="Shape" fill-rule="nonzero"></path>
                                    <rect id="Rectangle" x="30.9" y="30.2" width="21.5" height="5.8"></rect>
                                    <rect id="Rectangle" x="30.9" y="42.7" width="21.5" height="5.8"></rect>
                                    <rect id="Rectangle" x="30.9" y="55.2" width="21.5" height="5.8"></rect>
                                    <rect id="Rectangle" x="30.9" y="67.6" width="21.5" height="5.8"></rect>
                                </g>
                            </g>
                        </g>
                    </g>
                </g>
            </g>
        </g>
    </g>
</svg>