<?xml version="1.0" encoding="UTF-8"?>
<svg width="670px" height="1648px" viewBox="0 0 670 1648" version="1.1" xmlns="http://www.w3.org/2000/svg" xmlns:xlink="http://www.w3.org/1999/xlink">
    <!-- Generator: Sketch 52.5 (67469) - http://www.bohemiancoding.com/sketch -->
    <title>Path 4</title>
    <desc>Created with Sketch.</desc>
    <g id="Page-1" stroke="none" stroke-width="1" fill="none" fill-rule="evenodd" opacity="0.603585379">
        <g id="About-us---Our-Campaign" transform="translate(-348.000000, -1131.000000)" stroke="#B4DE96" stroke-width="20">
            <path d="M720,1131 L720,1382.9 C720,1402.22997 735.670034,1417.9 755,1417.9 L1007.5862,1417.9 L1007.5862,1551.56628 C1007.5862,1570.89624 991.916165,1586.56628 972.586198,1586.56628 C972.442515,1586.56628 972.298834,1586.56539 972.155161,1586.56362 L393.470327,1579.43638 C374.141827,1579.19832 358.28,1594.67419 358.041944,1614.00269 C358.040175,1614.14636 358.03929,1614.29004 358.03929,1614.43372 L358.03929,1758.61538 L358.03929,1890.34615 C358.03929,1909.67612 373.709324,1925.34615 393.03929,1925.34615 L959.438077,1925.34615 C978.768044,1925.34615 994.438077,1941.01619 994.438077,1960.34615 L994.438077,2095 L994.438077,2255 C994.438077,2274.32997 978.768044,2290 959.438077,2290 L435.936784,2290 C416.606818,2290 400.936784,2305.67003 400.936784,2325 L400.936784,2483 L400.936784,2615.96079 C400.936784,2635.29076 416.606818,2650.96079 435.936784,2650.96079 L685,2650.96079 C704.329966,2650.96079 720,2666.63083 720,2685.96079 L720,2778.2" id="Path-4"></path>
        </g>
    </g>
</svg>