<?xml version="1.0" encoding="UTF-8"?>
<svg width="256px" height="256px" viewBox="0 0 256 256" version="1.1" xmlns="http://www.w3.org/2000/svg" xmlns:xlink="http://www.w3.org/1999/xlink">
    <!-- Generator: Sketch 52.5 (67469) - http://www.bohemiancoding.com/sketch -->
    <title>The Problem</title>
    <desc>Created with Sketch.</desc>
    <g id="Page-1" stroke="none" stroke-width="1" fill="none" fill-rule="evenodd">
        <g id="About-us---Our-Campaign" transform="translate(-877.000000, -1276.000000)">
            <g id="The-Problem" transform="translate(877.000000, 1276.000000)">
                <circle id="Oval" fill="#52B0CC" cx="128" cy="128" r="128"></circle>
                <g id="noun_Headache_1880649" transform="translate(63.000000, 54.000000)" fill="#FFFFFF" fill-rule="nonzero">
                    <path d="M35.5777764,25.105159 C35.5078089,25.8799488 35.4720808,26.6487786 35.4646375,27.4146285 L17.0602063,17.1963437 L16.8309511,4.6372998 L32.0094337,13.8066385 L31.7578484,0.00197112473 L41.11563,10.8773373 C38.0653445,14.8660145 36.067549,19.7352701 35.5777764,25.105159 Z M128.975464,47.9882763 L100.099726,9.40076679 C95.3166278,2.85528338 86.2655122,4.91294616 83.8449343,9.37394714 C79.3372406,4.25586485 72.9404242,0.781230816 65.6057455,0.115209627 C55.7805214,-0.777288566 46.6907004,3.58239376 41.1171187,10.8758473 L57.7396115,30.1919517 L39.8160208,20.7365368 L39.9842406,29.9207753 L35.4661262,27.4131385 C35.3514985,41.6245705 46.1756205,53.7813197 60.6008359,55.0910123 C75.6423608,56.4588142 88.9570282,45.514909 90.5722355,30.5748767 L106.493565,51.8503052 L87.1229863,65.7354315 C87.1229863,65.7354315 74.8563429,62.9178788 49.4105011,62.9178788 C38.0400371,62.9178788 16.3679746,70.6642863 12.0880474,84.1500979 C12.0880474,84.1500979 -0.0267516797,121.702071 4.43861153e-05,122.837436 L0.625285922,149 L20.9545678,149 L20.357611,124.07263 L28.9129994,97.4884015 C31.1534482,97.5837602 31.3946128,100.459422 31.3946128,102.429176 L31.3946128,149 L86.8073882,149 L86.8073882,90.9518579 L126.761811,62.3069869 C133.466782,57.613549 130.608535,50.1696074 128.975464,47.9882763 Z" id="Shape"></path>
                </g>
            </g>
        </g>
    </g>
</svg>