<?xml version="1.0" encoding="UTF-8"?>
<svg width="266px" height="266px" viewBox="0 0 266 266" version="1.1" xmlns="http://www.w3.org/2000/svg" xmlns:xlink="http://www.w3.org/1999/xlink">
    <!-- Generator: Sketch 52.5 (67469) - http://www.bohemiancoding.com/sketch -->
    <title>Our Purpose</title>
    <desc>Created with Sketch.</desc>
    <g id="Page-1" stroke="none" stroke-width="1" fill="none" fill-rule="evenodd">
        <g id="About-us---Our-Company" transform="translate(-587.000000, -1154.000000)">
            <g id="Our-Purpose" transform="translate(587.000000, 1154.000000)">
                <g>
                    <circle id="Oval-Copy" fill="#52B0CC" cx="133" cy="133" r="133"></circle>
                    <g id="noun_Handshake_2043887" transform="translate(49.000000, 74.000000)" fill="#FFFFFF">
                        <g id="Group">
                            <path d="M71.05,74.375 C71.4,73.15 71.75,72.1 72.275,71.05 C66.85,71.75 61.6,71.925 58.975,71.05 C57.05,70.175 52.5,65.1 50.05,62.3 C47.6,59.675 45.5,57.4 43.4,55.3 C39.725,51.625 36.925,49.175 31.675,47.95 C25.375,46.375 9.275,44.45 4.9,54.95 C-4.4408921e-16,66.15 0.875,94.85 1.05,115.5 C1.05,117.25 2.275,118.65 4.025,118.65 L38.15,118.65 C40.25,118.65 40.95,117.6 41.3,115.85 C41.475,114.8 42.525,95.025 43.225,81.2 C46.55,84.35 49.7,86.975 53.375,88.025 C56.7,89.075 60.725,89.425 64.925,89.425 C68.425,89.425 71.925,89.075 75.075,88.725 C71.4,85.05 70,79.625 71.05,74.375 Z" id="Path"></path>
                            <circle id="Oval" cx="24.5" cy="21" r="20.65"></circle>
                            <path d="M163.275,54.95 C158.725,44.45 142.8,46.2 136.325,47.95 C131.075,49.35 128.275,51.8 124.6,55.3 C122.5,57.225 120.225,59.5 117.95,62.3 C115.5,65.1 110.775,70.175 109.025,71.05 C104.475,72.45 96.6,70.875 89.425,69.3 C84.525,68.25 79.625,71.225 78.575,76.125 C77.525,81.025 80.5,85.925 85.4,86.975 C88.025,87.5 93.625,89.775 103.25,89.775 C107.45,89.775 111.475,89.425 114.8,88.375 C118.3,87.15 121.625,84.7 124.95,81.55 C125.65,95.55 126.7,115.15 126.875,116.2 C127.05,117.95 127.925,119 129.85,119 C131.95,119 159.6,119 163.975,119 C165.725,119 166.95,117.6 166.95,115.85 C167.125,94.85 168,66.15 163.275,54.95 Z" id="Path"></path>
                            <circle id="Oval" cx="143.5" cy="21" r="20.65"></circle>
                        </g>
                    </g>
                </g>
            </g>
        </g>
    </g>
</svg>