<?xml version="1.0" encoding="UTF-8"?>
<svg width="266px" height="266px" viewBox="0 0 266 266" version="1.1" xmlns="http://www.w3.org/2000/svg" xmlns:xlink="http://www.w3.org/1999/xlink">
    <!-- Generator: Sketch 52.5 (67469) - http://www.bohemiancoding.com/sketch -->
    <title>Our Goals</title>
    <desc>Created with Sketch.</desc>
    <g id="Page-1" stroke="none" stroke-width="1" fill="none" fill-rule="evenodd">
        <g id="About-us---Our-Company" transform="translate(-989.000000, -1153.000000)">
            <g id="Our-Goals" transform="translate(986.000000, 1153.000000)">
                <g transform="translate(3.000000, 0.000000)">
                    <circle id="Oval-Copy-2" fill="#52B0CC" cx="133" cy="133" r="133"></circle>
                    <g id="noun_Dream_1734078" transform="translate(63.000000, 38.000000)" fill="#FFFFFF">
                        <g id="Group">
                            <circle id="Oval" cx="47.8" cy="85.2" r="23.2"></circle>
                            <path d="M89.8,149.6 C88.4,144 84.4,136.4 80.4,129.2 L79.4,127.4 C75.4,119.8 69.4,116 61.8,116 L33.8,116 C26.2,116 20.2,119.8 16.2,127.4 L15.2,129.2 C11.2,136.4 7.4,144 5.8,149.6 C4.2,155.6 1,172.4 0.8,173 C-0.2,177.8 3,182.6 7.8,183.4 C8.4,183.6 9,183.6 9.6,183.6 C13.8,183.6 17.6,180.6 18.4,176.4 C18.4,176.2 21.8,159.4 23.2,154 C23.8,151.8 25.2,148.6 26.8,145.4 L25.6,184.2 C25.6,187.4 28,190 31.2,190 L64.2,190 C67.4,190 70,187.4 69.8,184.2 L68.6,145.4 C70.2,148.6 71.8,152 72.2,154 C73.6,159.4 77,176.2 77,176.4 C78,181.2 82.6,184.4 87.4,183.4 C92.2,182.4 95.4,177.8 94.4,173 C94.6,172.4 91.2,155.6 89.8,149.6 Z" id="Path"></path>
                            <circle id="Oval" cx="98.8" cy="69.2" r="8.6"></circle>
                            <circle id="Oval" cx="84.2" cy="83.8" r="6"></circle>
                            <path d="M125.4,11 C122.6,4.6 116.2,8.8817842e-16 108.8,8.8817842e-16 C104,8.8817842e-16 99.4,2 96.2,5.2 C93.4,2 89.2,0 84.6,0 C78,0 72.2,4.2 70,10 C62.6,12.4 57.2,19.2 57.2,27.4 C57.2,35.8 62.8,42.8 70.6,45 C73.2,51.4 79.4,56 86.8,56 C91.6,56 95.8,54.2 99,51 C102.4,54 106.6,56 111.6,56 C119,56 125.4,51.6 128.4,45.4 C134.8,42.6 139.4,36.2 139.4,28.6 C139.2,20 133.2,13 125.4,11 Z" id="Path"></path>
                        </g>
                    </g>
                </g>
            </g>
        </g>
    </g>
</svg>