<?xml version="1.0" encoding="UTF-8"?>
<svg width="266px" height="266px" viewBox="0 0 266 266" version="1.1" xmlns="http://www.w3.org/2000/svg" xmlns:xlink="http://www.w3.org/1999/xlink">
    <!-- Generator: Sketch 52.5 (67469) - http://www.bohemiancoding.com/sketch -->
    <title>Our Mission</title>
    <desc>Created with Sketch.</desc>
    <g id="Page-1" stroke="none" stroke-width="1" fill="none" fill-rule="evenodd">
        <g id="About-us---Our-Company" transform="translate(-185.000000, -1153.000000)">
            <g id="Our-Mission" transform="translate(185.000000, 1153.000000)">
                <g>
                    <circle id="Oval" fill="#52B0CC" cx="133" cy="133" r="133"></circle>
                    <g id="noun_Mission_1321208" transform="translate(62.000000, 57.000000)" fill="#FFFFFF" fill-rule="nonzero">
                        <path d="M129.759723,3.33423499 C121.266929,4.80698525 111.868804,8.32389926 101.561949,13.8781745 C100.486761,14.3883651 100.203102,15.0975301 100.71267,16.0039687 C101.223936,17.080471 102.04434,17.2233243 103.17558,16.4291276 L108.1014,13.8781745 C109.062785,13.4241048 109.799959,13.1690095 110.309527,13.1128886 C110.875147,13.0567676 112.376673,12.942825 114.810707,12.7727615 C108.977857,15.4359565 105.412582,17.1655027 104.108089,17.9596995 C103.032901,18.4715907 102.467281,19.1501442 102.40953,20.0004619 C102.40953,20.39671 102.637137,21.2198175 103.088953,22.4663833 C103.768377,24.1108977 105.100047,24.4799356 107.080566,23.5717963 C108.157453,22.9476631 108.977857,22.5225042 109.543477,22.2963197 C110.448808,21.8405494 111.326963,21.6432757 112.176243,21.6993967 C112.799614,20.9613209 113.677769,20.3677992 114.810707,19.9137295 L118.292753,18.638253 C117.215867,19.9426403 116.395463,20.7079263 115.829843,20.9341108 C115.376327,21.2181169 114.243389,21.558244 112.432725,21.9561927 C111.923157,22.7503894 111.129931,23.4017327 110.054743,23.9102227 C109.545175,24.2503498 108.668719,24.5904769 107.421977,24.9323046 C106.290737,25.3863743 105.63849,26.0088068 105.470333,26.8030035 C105.41428,27.3693151 105.640189,28.2196328 106.148058,29.3539567 C106.715376,30.4321595 107.252121,31.0835029 107.761689,31.3096874 C108.498863,31.5919928 109.348142,31.3947191 110.309527,30.7127643 C112.064138,29.6923831 113.422985,28.9270972 114.386068,28.4169065 C115.970823,27.5104679 117.215867,26.5751184 118.121198,25.6108581 L119.057104,24.7605404 C119.510619,24.5343559 120.047364,24.5904769 120.669037,24.9323046 C119.593849,26.7451819 117.868113,28.3335754 115.488432,29.6940837 C114.129585,30.4321595 112.147367,31.5358719 109.543477,33.0103228 C110.732468,34.6548372 111.525695,35.5051549 111.921459,35.5612759 C112.487079,35.7313394 113.448463,35.4184225 114.809009,34.6259264 L124.575722,28.843766 C123.554888,30.5444014 122.280969,31.9321199 120.753964,33.0103228 C119.848633,33.6327553 118.516963,34.3980413 116.760653,35.3061806 C115.629413,35.8724921 115.175897,36.5255361 115.401806,37.2619113 C115.513911,37.7159809 115.826446,38.0271972 116.336013,38.1972607 C116.903332,38.2533817 117.356847,38.3384135 117.69486,38.4523561 C118.432035,38.564598 119.423993,38.1683499 120.667338,37.2619113 C121.800277,36.3554726 122.790536,36.0153455 123.639816,36.2398294 C123.81137,36.9200836 123.554888,37.459185 122.877163,37.855433 C122.083936,38.3656236 121.659296,38.7346615 121.603244,38.960846 C123.867423,40.4335963 125.425001,41.0866403 126.27428,40.9148761 C127.235665,40.6886916 128.397479,39.469336 129.756326,37.2602106 C131.680793,34.3691305 133.522031,30.7688853 135.276642,26.4594752 C137.087306,21.4715116 138.502205,17.7590245 139.523039,15.3203133 C139.579091,14.7540017 139.664019,14.3577537 139.776124,14.1298685 C140.229639,12.5431757 140.993991,12.0040743 142.070877,12.5159655 C143.146065,12.9105129 143.288744,13.8475631 142.495517,15.3203133 C141.985949,16.5107581 140.684853,19.9120289 138.588831,25.5241257 C137.002378,29.6634723 135.558603,33.0358323 134.255808,35.6429064 C129.555896,44.712395 124.292062,53.4145463 118.459212,61.7476598 C113.930854,68.211775 111.128232,72.0943256 110.051346,73.3987129 C106.768032,77.5363589 103.39979,80.8798081 99.9466197,83.4307612 C96.4356987,86.0956569 94.3125002,89.3268641 93.5770243,93.124383 C93.2373125,94.7688974 92.585066,96.6668065 91.6236817,98.8232122 C91.0580617,100.068077 90.1527298,101.911566 88.9059877,104.350277 L78.9728161,125.09973 C77.7277725,127.538441 76.7646897,128.926159 76.0852662,129.266287 C75.4635937,129.606414 73.7650349,129.606414 70.9895899,129.266287 C69.9144022,129.096223 67.5075444,128.557122 63.7707152,127.650683 C60.7693618,126.856486 58.3370257,126.546971 56.4669125,126.715333 C55.5055282,126.715333 54.7123013,126.06399 54.0906288,124.761303 C53.750917,123.910986 53.6948646,122.973936 53.9190744,121.955255 C54.3725895,120.538626 54.6834258,119.460423 54.8532817,118.724048 C55.136941,117.41966 55.0808885,116.40098 54.6834258,115.662904 C54.5713209,115.322777 53.9190744,115.040471 52.7300832,114.812586 C51.3712362,114.472459 50.409852,114.0473 49.8442319,113.53711 C49.1648084,112.970798 48.2306011,112.290544 47.0416099,111.496347 C45.1171429,110.419845 44.0691321,109.851833 43.8992762,109.795712 C42.7663375,108.945394 41.5773464,108.833152 40.3306043,109.457285 C38.2923338,110.419845 35.6035152,110.419845 32.2624502,109.457285 C32.7159653,110.761673 32.9146967,111.865385 32.8586443,112.771824 C32.8025918,113.906148 32.3473781,114.98435 31.4980987,116.003031 C29.4054743,118.326099 26.2325666,121.671249 21.9861697,126.03678 C18.3053928,129.948241 15.5044694,133.517875 13.5783038,136.750783 C12.9005788,137.941228 11.7387647,138.279654 10.0962583,137.771164 C9.58669071,137.601101 9.24697896,137.317095 9.07712308,136.920846 C8.90556864,136.466777 9.02107064,136.041618 9.41513627,135.64537 C10.6601798,134.568868 12.1617058,132.841022 13.916317,130.458432 C15.8424826,128.019721 17.34231,126.319085 18.4174977,125.356526 C23.8511872,120.480804 27.5608395,116.200305 29.5430576,112.516728 C29.7129135,112.176601 30.2802321,111.751443 31.2416163,111.241252 C32.0348433,110.787182 32.374555,110.21917 32.2607516,109.540617 L30.9019046,107.839981 C29.656861,106.195467 29.091241,105.090054 29.2033458,104.523742 C29.2033458,103.95743 29.8555924,102.879228 31.1566884,101.292535 C32.1180727,100.442217 32.8552472,99.7908737 33.3648148,99.3385047 C34.2701466,98.488187 34.7508387,97.5239268 34.8085897,96.4474245 C30.8458522,95.5409859 28.4389944,93.4151916 27.589715,90.0700418 C27.2500033,89.1074821 26.7404356,88.4544382 26.0627107,88.1143111 C25.3255362,87.8320056 24.4490799,88.0292793 23.428246,88.7112341 C23.1462853,88.9374186 22.6655932,89.1653038 21.9844711,89.3897876 C19.4926854,90.3540479 17.7091987,90.5241114 16.634011,89.9016789 C15.5588233,89.2775457 14.7655964,87.6619421 14.2577273,85.0531673 C13.4645004,81.425712 12.7850769,77.6554033 12.2194568,73.7456426 C11.6538367,70.6827982 12.7001489,68.2474883 15.3617905,66.4312097 C19.3822791,63.8241356 24.4219029,61.0180872 30.4789635,58.0147651 C37.4430544,54.7835578 42.6525341,52.3159359 46.1057041,50.6153005 C50.917721,48.1765893 54.5984979,45.5695152 57.146336,42.7923776 C60.3158466,39.2771642 64.2242304,35.6769191 68.8646929,31.9916422 C71.5840855,29.7808161 75.8304824,26.6074305 81.6038836,22.4680839 C89.1913456,16.912108 98.1954056,11.6401383 108.610968,6.65217466 C117.443473,2.5706497 125.284021,0.359823675 132.136007,0.019696595 C134.23033,-0.0925453416 136.156495,0.274791905 137.911107,1.12510961 C139.665718,1.97542731 140.827532,3.13696129 141.393152,4.61141218 C141.90272,5.74573599 141.846667,6.53823209 141.223296,6.99230174 C140.317964,7.78479784 139.553613,7.55861333 138.928543,6.31204758 C137.347185,3.5315087 134.288081,2.54003826 129.759723,3.33423499 Z M91.6437796,18.6384451 L86.6886213,22.1389218 C71.9872357,31.4740954 58.3729424,44.0228774 45.8371951,59.7903904 C45.4953422,60.360712 44.784288,61.4415909 43.7006142,63.0347346 C42.7331704,64.3444252 41.962292,65.3399266 41.3931069,66.0229464 C39.7402479,67.730496 37.9181718,69.9212822 35.9234599,72.5970124 C34.7833803,74.133807 33.1031731,76.4680273 30.881129,79.5996733 C28.317232,82.7859608 28.3736377,86.2300884 31.0537648,89.9303483 C31.4520234,90.4989624 32.5630455,91.6942471 34.3851216,93.5162025 C35.8106484,94.9402989 37.1780602,94.9112705 38.4873569,93.430825 C42.1913335,89.6742159 44.9535053,86.8294383 46.7772907,84.893077 C50.0248936,81.4779778 52.7033114,78.5187944 54.8108347,76.0138191 C55.4945406,74.9329402 56.0637258,74.1935713 56.5200994,73.7940046 C57.2038053,73.1690415 58.0020319,73.3107681 58.91307,74.220892 C59.7677024,75.0746668 59.8531656,75.8994133 59.1677504,76.696839 C58.7113768,77.1527547 57.9729744,77.7213687 56.9457063,78.4043886 C52.3306917,83.3562824 45.3227064,90.6714249 35.9217506,100.346401 C34.8961918,101.372638 34.2415434,102.197385 33.9560962,102.822348 C33.4997225,103.788821 33.6159525,104.70236 34.2979491,105.556135 C34.981655,106.466259 35.8653449,106.749712 36.9473094,106.40991 C38.2600247,105.839588 39.2274685,105.412701 39.8530594,105.129247 L40.7076917,104.529897 C44.9808535,100.658882 48.1720507,97.7287274 50.2812833,95.7377245 C53.9835506,92.3789745 56.9457063,89.2200077 59.1677504,86.2591167 C60.4804657,84.495218 61.2188681,83.1855274 61.3915038,82.3317526 C61.6752418,80.965713 61.0205934,79.65773 59.4258494,78.4043886 C60.7368554,77.7213687 62.2461362,77.921152 63.9554009,79.0020309 C65.1501769,79.8558057 65.8065345,80.6532314 65.919346,81.3926004 C65.9757517,82.0756202 65.4920298,83.0438008 64.466471,84.2954347 C60.9915359,88.6206578 57.1456903,92.862211 52.9289343,97.0166792 C51.9016662,98.0412089 50.3940948,99.4909185 48.3993829,101.370931 C46.6901182,103.07848 45.3517639,104.700652 44.3826108,106.237447 C46.5482492,107.888647 48.2284564,108.713394 49.4249417,108.713394 C50.6778327,105.525399 51.7597973,103.192886 52.6708353,101.712441 C53.6399884,100.344693 54.8074162,99.2364936 56.174828,98.3827188 C56.0039015,99.2928428 55.6056428,100.344693 54.9800519,101.541686 C54.6946047,102.224705 54.1544771,103.192886 53.3562505,104.44452 C52.3888067,106.549929 51.8179123,107.888647 51.6469858,108.457261 C51.3615386,109.311036 51.4470018,109.994056 51.9016662,110.506321 C52.1871134,110.847831 52.7562986,111.247398 53.6109309,111.701606 C54.2946368,112.099465 54.8364737,112.099465 55.2347324,111.701606 C55.4073681,111.530851 55.6911061,111.074935 56.0893647,110.335566 L62.1572544,98.6371437 C62.6153373,97.7270198 63.0118867,97.1584058 63.3537397,96.9295941 C63.9810398,96.304631 64.7792664,95.9050644 65.7467103,95.736017 L59.0805779,108.713394 C62.1572544,107.746921 65.0920619,105.525399 67.8832911,102.05395 C71.8145999,97.3291607 74.1511648,94.5987889 74.8912764,93.8577124 C74.6075384,95.2801012 73.8093118,96.9586225 72.5000151,98.8949837 C70.7907504,101.285553 69.7070766,102.964074 69.2524121,103.932255 C75.2348386,100.231995 79.1661474,96.4753859 81.0463385,92.6607201 C81.2736707,92.0921061 82.4137503,89.9576691 84.4648679,86.2574092 C85.0904588,85.5180402 85.7177589,85.3182569 86.3450591,85.6597668 C86.8014328,86.0576259 86.8851867,86.5698907 86.6014488,87.1965614 L83.4375998,92.8314751 C85.7741647,92.0903986 87.5124869,90.640689 88.6508572,88.4772236 C90.8182048,85.0621244 92.440297,81.5035911 93.5239708,77.8050387 C93.5803765,77.1220188 93.6948973,76.6370747 93.8658237,76.3519139 C94.0367502,75.8959982 94.4914146,75.6979225 95.2332355,75.7542716 C95.4605677,76.6080464 95.346047,77.8323594 94.8913826,79.4237957 C94.4350089,81.1313453 94.3512549,82.4990925 94.6349929,83.5219147 C95.8314781,83.0096498 96.5442415,82.0995259 96.7715737,80.7898353 C97.0006152,79.194984 97.7407268,77.231302 98.9953271,74.8987892 C100.362739,72.0523041 101.188314,70.088622 101.472052,69.0077431 C101.813905,67.6980526 102.526668,67.4128918 103.608633,68.1539683 C103.89408,68.3810724 104.006891,68.6662332 103.950485,69.0077431 C103.837674,69.2348472 103.666748,69.5473288 103.437706,69.9468954 L99.3354708,78.3138884 L100.704592,79.3384182 C106.457977,71.7671433 110.816602,66.0758805 113.778757,62.2629222 C118.906552,55.4327238 122.981439,49.3709228 126,44.0792266 L122.923324,43.7377166 C117.281041,42.6551302 112.922416,41.1473639 109.847449,39.2127102 C105.803328,36.7077349 102.981332,33.0091825 101.386588,28.1136378 C100.133697,24.3570287 98.8517489,21.5686002 97.5407428,19.7483523 C96.4023726,18.0408028 95.5767977,17.1289713 95.062309,17.0145654 C94.4931239,16.9018672 93.3530443,17.4431604 91.6437796,18.6384451 Z M94.6021327,46.0783526 C93.8248349,45.3861949 93.7397659,44.6333217 94.3535976,43.8232023 C94.9640932,42.9558368 95.7147026,42.7823637 96.6054257,43.302783 C96.7738958,43.3600291 97.5228372,43.9099388 98.8589219,44.9507775 C100.526943,46.1650892 101.609488,47.1191912 102.109894,47.8113489 C103.000618,49.0829067 103.222464,50.5296724 102.777103,52.1481764 C101.664533,56.6602118 99.4961058,59.3768006 96.2718215,60.3014122 C93.6029882,61.0542855 91.1293133,61.1982681 88.8507968,60.735095 C86.9592611,60.2719218 85.4029977,59.3768006 84.1786704,58.0462619 C82.8442537,56.7157232 82.1236687,55.2412018 82.0102433,53.6226978 C81.9551986,50.616409 82.1220007,48.6197336 82.5106495,47.6378758 C83.1228132,45.9031448 84.5406309,44.51536 86.7657707,43.4745214 L90.1852135,42 C89.9616987,42.9246116 89.351203,43.9654502 88.3487225,45.1225158 C87.2378206,46.3940737 86.5138996,47.3481757 86.1802954,47.984822 C84.5673192,51.8584764 85.3179286,54.7485382 88.4337916,56.6584771 C89.7131636,57.5258426 91.4629174,57.7565618 93.6863892,57.3506348 C95.7997716,57.0626694 97.2175894,56.368777 97.9398424,55.2706923 C98.6070507,54.2870998 98.8038772,53.0710533 98.5253177,51.6260224 C98.2467582,50.1809915 97.5812179,48.8504528 96.5236927,47.6361411 C95.5762568,47.0029642 94.9357368,46.4825449 94.6021327,46.0783526 Z M79.0755797,116.245445 C79.3545726,116.413878 79.6066746,116.159544 79.8302051,115.487496 C84.3680412,107.963592 87.7579728,100.468321 90,93 C86.7495648,95.3024798 82.5209738,98.2500581 77.309185,101.842735 C75.6856481,103.191884 73.2200904,104.98738 69.9158735,107.232592 C67.1696423,109.535072 65.3780374,112.117151 64.5376973,114.982197 C64.4267725,115.543079 63.8939969,116.413878 62.9410513,117.592909 C62.1007113,118.771941 61.6250788,119.753905 61.5124733,120.540488 C61.4015484,120.877354 61.2317997,121.298436 61.0082692,121.803735 C60.9528068,122.253452 61.1763373,122.617267 61.6788606,122.896866 C62.7444117,123.570598 63.6402142,123.206783 64.3696293,121.803735 C65.0973638,120.174988 65.8805607,118.771941 66.7209007,117.592909 C67.3377103,116.637894 67.8704859,115.937212 68.3175468,115.487496 C69.0469619,114.700914 70.0536892,114.335414 71.3427708,114.392681 C70.6150364,115.460547 69.5225943,116.919177 68.0654448,118.773625 C67.1141798,120.457955 66.5259418,122.000802 66.3007307,123.405534 C68.2620843,124.808581 69.6906624,125.285246 70.5864648,124.837215 C70.8671384,124.668781 71.904118,123.518384 73.6974036,121.384337 C74.4268187,119.811172 74.9864852,118.632141 75.3780836,117.845559 C76.1074988,116.498094 77.3394372,115.964162 79.0755797,116.245445 Z M28.0099607,61.9083494 C23.605835,64.5161144 20.8013372,66.2733364 19.5998999,67.1817164 C15.767315,69.9612911 14.9949625,73.0504635 17.2828423,76.4526358 C18.6559135,75.7739024 20.1130852,73.8720881 21.6595066,70.7539973 C23.1475725,67.9182867 24.8639115,66.246119 26.8085235,65.7357932 L27.9241438,66.6713906 L18.1410118,78.4939391 C17.3961207,79.5707267 17.0528529,80.7325685 17.1094921,81.9811657 C17.2244868,83.2858988 17.7393885,84.279333 18.6541971,84.9580664 C20.7138039,86.3189353 22.7734106,86.3461527 24.8330174,85.0431207 C26.264444,84.1364418 27.378348,82.4914915 28.1798783,80.111672 C28.8664139,77.6723145 30.0695675,75.1785223 31.7859064,72.6268931 C32.6440759,71.379997 34.3037757,69.2247208 36.761573,66.1627658 C40.1376118,62.1941319 42.8837541,58.1387425 45,54 C43.2270219,54.9645158 40.3676012,56.2981674 36.4183053,57.9992535 C32.7024314,59.5268288 29.8979336,60.8298608 28.0099607,61.9083494 Z M56.3538895,115.170732 C55.7104137,115.98374 55.9442451,118.260163 57.0571418,122 L64,112 C59.4306183,113.245528 56.8813287,114.304065 56.3538895,115.170732 Z M22.2617436,78.8534666 C23.231252,77.4323881 25.1445751,76.148992 28,75 C24.402884,79.4795935 22.0904523,82.8134732 21.0627049,85 C20.8331746,82.3217505 21.2339961,80.2729061 22.2617436,78.8534666 Z M22.3458362,101.066638 L10.7788657,114.439353 C8.75073217,116.681595 7.50358662,118.447803 7.0409078,119.736294 C6.51908958,121.194676 5.47545314,121.3898 3.90999847,120.326711 C2.86462264,119.596679 2.72025293,118.839733 3.47514995,118.054191 L21.6500786,97.4484361 C21.9405574,96.9993148 22.4049756,96.888296 23.0433333,97.1120156 C23.2172727,97.167525 23.5355818,97.5039455 24,98.1229592 C23.9982606,98.9085011 23.4486121,99.8891668 22.3458362,101.066638 Z M17.0054272,151.61585 C16.9470938,150.880463 17.3589632,150.080568 18.2428031,149.219852 C19.126643,148.298314 19.9521495,147.898366 20.7157872,148.021852 C21.3645257,148.145338 21.7781628,148.451289 21.9531631,148.94339 C22.1299311,149.743285 21.8064457,150.572669 20.9809392,151.433386 C20.2137661,152.354923 19.4183102,152.876514 18.5928037,153 C17.5357312,152.813849 17.0054272,152.35308 17.0054272,151.61585 Z M5.79843431,145.915371 C4.33213619,147.306938 3.14827381,148 2.24515594,148 C1.23041675,147.880256 0.8363597,147.395839 1.06129355,146.548561 C1.23210798,145.824656 1.93735172,144.734263 3.17533352,143.282824 C4.47419968,141.771514 5.46018792,141.014951 6.13498948,141.014951 C6.58823965,140.955079 7.01104764,141.074823 7.40341346,141.377811 C7.79747051,141.619113 7.99703588,142.012815 7.99703588,142.555291 C8.05284654,143.404382 7.32054309,144.525619 5.79843431,145.915371 Z M27.6856704,143.326218 C26.6032972,142.359399 26.8016468,141.280039 28.285849,140.086435 C31.1345595,137.869741 34.214108,134.715215 37.5176547,130.622857 C41.1101763,125.962685 43.8443229,122.523399 45.7252242,120.306705 C46.6947434,119.056831 47.52234,118.316796 48.2045942,118.088306 C48.8885583,117.805252 49.4870269,118.202551 50,119.281911 C50,120.021945 49.6306594,120.845532 48.8902682,121.754377 L31.107201,142.898226 C29.9085538,144.20778 28.7697536,144.349308 27.6856704,143.326218 Z M2.45023673,126.018699 C3.48341224,125.894759 4,126.386819 4,127.498577 C3.6768908,129.100546 2.99971584,129.932977 1.96654033,129.995872 C0.805668965,130.056917 0.161385359,129.440918 0.0317547231,128.146024 C-0.0959411269,127.46898 0.161385359,126.945473 0.805668965,126.573653 C1.57958321,126.325774 2.12906232,126.142639 2.45023673,126.018699 Z" id="Shape"></path>
                    </g>
                </g>
            </g>
        </g>
    </g>
</svg>