<?xml version="1.0" encoding="UTF-8"?>
<svg width="256px" height="256px" viewBox="0 0 256 256" version="1.1" xmlns="http://www.w3.org/2000/svg" xmlns:xlink="http://www.w3.org/1999/xlink">
    <!-- Generator: Sketch 52.5 (67469) - http://www.bohemiancoding.com/sketch -->
    <title>Donation</title>
    <desc>Created with Sketch.</desc>
    <g id="Page-1" stroke="none" stroke-width="1" fill="none" fill-rule="evenodd">
        <g id="About-us---Our-Campaign" transform="translate(-278.000000, -2342.000000)">
            <g id="Donation" transform="translate(278.000000, 2342.000000)">
                <circle id="Oval-Copy-3" fill="#52B0CC" cx="128" cy="128" r="128"></circle>
                <g id="noun_Donate_2012634" transform="translate(58.061856, 63.340206)" fill="#FFFFFF">
                    <g id="Group">
                        <path d="M83.5408935,48.335457 C80.5993127,47.4458473 76.0398625,45.5183598 71.1862543,43.2943357 C67.9505155,44.6287501 63.6852234,44.4804819 58.8316151,42.1081895 C57.6549828,41.5151164 56.4783505,40.773775 55.3017182,39.8841654 C52.3601375,37.6601413 49.1243986,34.6947759 45.4474227,31.4328739 C45.1532646,31.2846056 45.0061856,30.988069 44.7120275,30.6915325 C43.8295533,29.9501911 43.5353952,28.6157767 44.2707904,27.5778988 C45.0061856,26.2434843 46.771134,26.095216 47.8006873,27.1330939 C48.0948454,27.4296305 48.3890034,27.5778988 48.6831615,27.8744353 C53.2426117,32.0259469 57.6549828,36.0291903 61.0378007,37.8084096 C67.2151203,40.9220433 71.3333333,38.8462875 73.0982818,35.7326538 C74.5690722,33.2120931 74.5690722,29.8019229 71.6274914,27.8744353 C67.6563574,25.2056064 63.3910653,21.3506313 59.2728522,17.7921927 C54.566323,13.6406811 49.5656357,9.48916947 45.5945017,7.1168771 C41.1821306,4.44804819 30.5924399,1.18614618 19.561512,0.593073092 C14.1195876,0.296536546 7.94226804,0 4.11821306,0 C2.20618557,0 0.735395189,1.48268273 0.735395189,3.41017028 L0.882474227,25.3538747 C0.882474227,27.2813622 2.3532646,28.7640449 4.2652921,28.7640449 L10.4426117,28.7640449 C11.9134021,28.7640449 13.2371134,29.5053863 14.1195876,30.6915325 C19.561512,38.4014827 26.0329897,45.8148963 30.7395189,49.8181397 C41.1821306,58.7142361 71.7745704,61.8278698 80.8934708,62.2726746 C90.0123711,62.5692112 92.0714777,50.8560176 83.5408935,48.335457 Z" id="Path"></path>
                        <path d="M119.428179,90.8884513 C108.54433,90.8884513 99.7195876,99.7845477 99.7195876,110.7564 C99.7195876,121.728252 108.54433,130.624348 119.428179,130.624348 C130.312027,130.624348 139.13677,121.728252 139.13677,110.7564 C139.13677,99.7845477 130.312027,90.8884513 119.428179,90.8884513 Z" id="Path"></path>
                        <path d="M106.92646,56.7867485 C105.014433,54.859261 101.925773,54.859261 99.8666667,56.7867485 C97.9546392,58.7142361 97.9546392,61.8278698 99.8666667,63.9036256 L115.898282,80.0648674 C116.927835,81.1027453 118.104467,81.5475501 119.428179,81.5475501 C120.75189,81.5475501 121.928522,81.1027453 122.958076,80.0648674 L138.989691,63.7553573 C140.901718,61.8278698 140.901718,58.7142361 138.989691,56.6384803 C137.077663,54.7109927 133.989003,54.7109927 131.929897,56.6384803 L124.281787,64.3484304 L124.281787,56.1936754 C124.281787,31.5811421 104.426117,11.5649253 80.0109966,11.5649253 C77.2164948,11.5649253 75.0103093,13.7889494 75.0103093,16.6060466 C75.0103093,19.4231438 77.2164948,21.6471678 80.0109966,21.6471678 C98.9841924,21.6471678 114.427491,37.2153365 114.427491,56.1936754 L114.427491,64.3484304 L106.92646,56.7867485 Z" id="Path"></path>
                    </g>
                </g>
            </g>
        </g>
    </g>
</svg>