<?xml version="1.0" encoding="UTF-8"?>
<svg width="256px" height="256px" viewBox="0 0 256 256" version="1.1" xmlns="http://www.w3.org/2000/svg" xmlns:xlink="http://www.w3.org/1999/xlink">
    <!-- Generator: Sketch 52.5 (67469) - http://www.bohemiancoding.com/sketch -->
    <title>Support Us</title>
    <desc>Created with Sketch.</desc>
    <g id="Page-1" stroke="none" stroke-width="1" fill="none" fill-rule="evenodd">
        <g id="About-us---Our-Campaign" transform="translate(-864.000000, -1956.000000)">
            <g id="Support-Us" transform="translate(864.000000, 1956.000000)">
                <circle id="Oval-Copy-2" fill="#52B0CC" cx="128" cy="128" r="128"></circle>
                <g id="noun_Donate_1334451" transform="translate(39.587629, 87.092784)" fill="#FFFFFF">
                    <path d="M158.362323,21.5440697 C152.779632,23.4186865 143.661237,25.4807649 133.798484,27.5428433 C130.07669,33.3541551 123.563551,38.040697 113.328619,39.5403903 C110.909453,39.9153137 108.304197,40.1027754 105.512852,40.1027754 C98.4414437,40.1027754 90.2534976,39.165467 81.135103,38.040697 C80.3907442,38.040697 79.6463855,37.8532353 79.0881164,37.8532353 C76.6689505,37.6657736 74.9941433,35.4162335 75.180233,33.1666935 C75.3663227,30.54223 77.5993989,28.6676133 80.2046545,28.855075 C80.9490133,28.855075 81.693372,29.0425367 82.4377308,29.0425367 C94.161381,30.3547684 105.326762,31.6670001 112.39817,30.54223 C125.424448,28.4801516 129.332332,20.6067614 128.774063,13.8581411 C128.215793,8.42175261 124.30791,2.98536409 117.980861,3.36028744 C108.676376,3.73521078 98.0692644,2.79790242 87.648242,1.67313238 C75.7385021,0.548362342 63.2704931,-0.76386937 54.5242779,0.548362342 C49.6859461,1.29820903 41.3119102,4.2975958 32.565695,7.85936759 C30.5187085,8.60921428 26.6108251,10.483831 26.6108251,10.483831 L3.34961434,10.483831 C1.48871749,10.483831 0,11.9835244 0,13.8581411 L0,65.4101012 C0,67.284718 1.48871749,68.7844113 3.34961434,68.7844113 L26.052556,68.7844113 C43.7310761,75.1581082 65.5035694,82.0941901 78.3437577,83.0314985 C104.210224,85.0935769 155.012708,55.4746326 169.713793,45.9140872 C184.228789,36.5410036 174.552125,16.1076812 158.362323,21.5440697 Z" id="Path"></path>
                </g>
            </g>
        </g>
    </g>
</svg>