<?xml version="1.0" encoding="UTF-8"?>
<svg width="256px" height="256px" viewBox="0 0 256 256" version="1.1" xmlns="http://www.w3.org/2000/svg" xmlns:xlink="http://www.w3.org/1999/xlink">
    <!-- Generator: Sketch 52.5 (67469) - http://www.bohemiancoding.com/sketch -->
    <title>The Solution</title>
    <desc>Created with Sketch.</desc>
    <g id="Page-1" stroke="none" stroke-width="1" fill="none" fill-rule="evenodd">
        <g id="About-us---Our-Campaign" transform="translate(-237.000000, -1613.000000)">
            <g id="The-Solution" transform="translate(237.000000, 1613.000000)">
                <circle id="Oval-Copy" fill="#52B0CC" cx="128" cy="128" r="128"></circle>
                <g id="noun_solution_1862712" transform="translate(65.979381, 54.103093)" fill="#FFFFFF">
                    <g id="Group">
                        <path d="M103.419381,86.5168385 C94.5814433,88.5360825 78.7661856,90.5553265 73.1843299,88.8467354 C70.8585567,87.7594502 65.1216495,81.3910653 62.0206186,77.9738832 C59.0746392,74.7120275 56.2837113,71.7608247 53.6478351,69.2756014 C49.1513402,64.771134 45.5851546,61.6646048 39.0729897,59.9560137 C31.1653608,57.9367698 11.3187629,55.6068729 5.73690722,68.809622 C-0.155051546,82.633677 0.775257732,118.669416 1.08536082,144.298282 C1.08536082,146.472852 2.48082474,148.33677 4.80659794,148.33677 C10.2334021,148.33677 44.6548454,148.33677 47.1356701,148.33677 C49.7715464,148.33677 50.7018557,146.938832 50.8569072,144.919588 C51.0119588,143.521649 52.4074227,119.135395 53.337732,101.738832 C57.3690722,105.621993 61.4004124,108.883849 65.8969072,110.281787 C70.083299,111.679725 75.0449485,112.145704 80.1616495,112.145704 C92.2556701,112.145704 104.969897,109.505155 108.225979,108.728522 C114.27299,107.330584 118.149278,101.272852 116.753814,95.2151203 C115.513402,89.0020619 109.466392,85.1189003 103.419381,86.5168385 Z" id="Path"></path>
                        <ellipse id="Oval" cx="30.2350515" cy="26.5608247" rx="25.7385567" ry="25.7841924"></ellipse>
                        <path d="M114.893196,38.5209622 C113.962887,37.5890034 113.962887,35.8804124 114.893196,34.9484536 C115.358351,34.4824742 116.133608,34.1718213 116.753814,34.1718213 C118.769485,34.1718213 120.785155,33.2398625 122.180619,31.2206186 C123.421031,29.2013746 123.421031,26.5608247 122.180619,24.5415808 C119.854845,21.1243986 115.203299,20.6584192 112.412371,23.4542955 C111.171959,24.6969072 110.551753,26.2501718 110.551753,27.9587629 C110.551753,28.7353952 110.241649,29.356701 109.776495,29.8226804 C108.846186,30.7546392 107.140619,30.7546392 106.210309,29.8226804 L99.2329897,22.8329897 C97.9925773,21.590378 96.1319588,21.590378 94.8915464,22.8329897 L87.9142268,29.8226804 C86.9839175,30.7546392 85.2783505,30.7546392 84.1929897,29.8226804 C83.7278351,29.356701 83.417732,28.5800687 83.417732,27.9587629 C83.417732,25.9395189 82.4874227,23.7649485 80.4717526,22.5223368 C78.4560825,21.2797251 75.8202062,21.2797251 73.8045361,22.5223368 C70.5484536,24.8522337 70.083299,29.5120275 72.8742268,32.3079038 C74.1146392,33.5505155 75.6651546,34.1718213 77.3707216,34.1718213 C78.1459794,34.1718213 78.7661856,34.4824742 79.2313402,34.9484536 C80.316701,36.0357388 80.316701,37.5890034 79.2313402,38.6762887 L72.2540206,45.6659794 C71.0136082,46.9085911 71.0136082,48.7725086 72.2540206,50.0151203 L79.2313402,57.004811 C80.1616495,57.9367698 80.1616495,59.6453608 79.2313402,60.732646 C78.7661856,61.1986254 77.9909278,61.5092784 77.3707216,61.5092784 C75.3550515,61.5092784 73.3393814,62.4412371 71.9439175,64.4604811 C70.7035052,66.4797251 70.7035052,69.1202749 71.9439175,71.1395189 C74.2696907,74.556701 78.9212371,75.0226804 81.7121649,72.2268041 C82.9525773,70.9841924 83.5727835,69.4309278 83.5727835,67.7223368 C83.5727835,66.9457045 83.8828866,66.3243986 84.3480412,65.8584192 C85.4334021,64.771134 86.9839175,64.771134 88.0692784,65.8584192 L95.0465979,72.84811 C96.2870103,74.0907216 98.1476289,74.0907216 99.3880412,72.84811 L107.140619,65.0817869 C107.450722,64.1498282 107.29567,63.062543 106.520412,62.2859107 C106.055258,61.8199313 105.28,61.5092784 104.659794,61.5092784 C103.109278,61.5092784 101.403711,60.8879725 100.163299,59.6453608 C97.3723711,56.8494845 97.6824742,52.1896907 101.24866,49.8597938 C103.26433,48.6171821 105.900206,48.6171821 107.915876,49.8597938 C109.931546,51.1024055 110.861856,53.1216495 110.861856,55.2962199 C110.861856,56.0728522 111.171959,56.6941581 111.637113,57.1601375 C112.412371,57.9367698 113.497732,58.0920962 114.428041,57.7814433 L122.180619,50.0151203 C123.421031,48.7725086 123.421031,46.9085911 122.180619,45.6659794 L114.893196,38.5209622 Z" id="Path"></path>
                    </g>
                </g>
            </g>
        </g>
    </g>
</svg>