<?xml version="1.0" encoding="UTF-8"?>
<svg width="169px" height="168px" viewBox="0 0 169 168" version="1.1" xmlns="http://www.w3.org/2000/svg" xmlns:xlink="http://www.w3.org/1999/xlink">
    <!-- Generator: Sketch 52.5 (67469) - http://www.bohemiancoding.com/sketch -->
    <title>Group 5</title>
    <desc>Created with Sketch.</desc>
    <g id="Page-1" stroke="none" stroke-width="1" fill="none" fill-rule="evenodd">
        <g id="Courses-Theme1" transform="translate(-188.000000, -1298.000000)">
            <g id="Group-5" transform="translate(188.000000, 1298.000000)">
                <ellipse id="Oval" fill="#52B0CC" fill-rule="nonzero" cx="84.5" cy="84" rx="84.5" ry="84"></ellipse>
                <g id="noun_tasks_469209" transform="translate(47.000000, 39.000000)" fill="#FFFFFF">
                    <g id="Group">
                        <path d="M70.6549506,78.9103639 L70.6549506,11.7256364 C70.6549506,5.38745456 65.2199544,0 58.8258412,0 L55.6287847,0 L37.7252678,0 L11.8291094,0 C5.4349962,-2.81471816e-15 0,5.07054547 0,11.7256364 L0,78.9103639 C0,85.2485457 5.4349962,90.6360003 11.8291094,90.6360003 L37.7252678,90.6360003 L55.6287847,90.6360003 L58.8258412,90.6360003 C65.2199544,90.6360003 70.6549506,85.2485457 70.6549506,78.9103639 Z M55.6287847,85.8823639 L51.1529054,85.8823639 L42.5208526,85.8823639 L38.0449734,85.8823639 L11.8291094,85.8823639 C7.99264147,85.8823639 4.79558488,82.713273 4.79558488,78.9103639 L4.79558488,11.7256364 C4.79558488,7.6058182 7.99264147,4.43672729 11.8291094,4.43672729 L37.7252678,4.43672729 L42.201147,4.43672729 L51.1529054,4.43672729 L55.6287847,4.43672729 L58.8258412,4.43672729 C62.6623091,4.43672729 65.8593657,7.6058182 65.8593657,11.4087273 L65.8593657,78.5934548 C65.8593657,82.3963639 62.6623091,85.5654548 58.8258412,85.5654548 L55.6287847,85.5654548 L55.6287847,85.8823639 Z M78.3278864,42.4658183 L50.1937884,70.3538184 L40.282913,60.5296365 C39.323796,59.5789093 37.4055621,59.5789093 36.4464451,60.5296365 C35.4873281,61.4803638 35.4873281,63.3818184 36.4464451,64.3325456 L48.2755545,76.058182 C48.9149658,76.6920002 49.5543771,76.6920002 50.1937884,76.6920002 C50.8331998,76.6920002 51.4726111,76.3750911 52.1120224,76.058182 L82.1643543,46.2687274 C83.1234713,45.3180001 83.1234713,43.4165456 82.1643543,42.4658183 C81.2052374,41.515091 79.2870034,41.515091 78.3278864,42.4658183 Z" id="Shape" fill-rule="nonzero"></path>
                        <path d="M13.2364158,20.0083886 L55.1178571,20.0083886 C56.0769741,20.0083886 57.036091,19.3745704 57.036091,18.106934 C57.036091,17.1562067 56.3966797,16.2054795 55.1178571,16.2054795 L13.2364158,16.2054795 C11.9575931,16.5223885 11.3181818,17.1562067 11.3181818,18.106934 C11.3181818,19.3745704 11.9575931,20.0083886 13.2364158,20.0083886 Z" id="Path"></path>
                        <path d="M13.2364158,36.213868 L55.1178571,36.213868 C56.0769741,36.213868 57.036091,35.5800498 57.036091,34.3124135 C57.036091,33.0447771 56.3966797,32.4109589 55.1178571,32.4109589 L13.2364158,32.4109589 C12.2772988,32.4109589 11.3181818,33.0447771 11.3181818,34.3124135 C11.3181818,35.5800498 11.9575931,36.213868 13.2364158,36.213868 Z" id="Path"></path>
                        <path d="M13.2364158,53.6659228 L55.1178571,53.6659228 C56.0769741,53.6659228 57.036091,53.0321046 57.036091,51.7644682 C57.036091,50.813741 56.3966797,49.8630137 55.1178571,49.8630137 L13.2364158,49.8630137 C12.2772988,49.8630137 11.3181818,50.4968319 11.3181818,51.7644682 C11.3181818,53.0321046 11.9575931,53.6659228 13.2364158,53.6659228 Z" id="Path"></path>
                        <path d="M13.2364158,69.8714023 L31.779344,69.8714023 C32.738461,69.8714023 33.6975779,69.2375841 33.6975779,67.9699477 C33.6975779,67.0192204 33.0581666,66.0684932 31.779344,66.0684932 L13.2364158,66.0684932 C12.2772988,66.0684932 11.3181818,66.7023113 11.3181818,67.9699477 C11.3181818,69.2375841 11.9575931,69.8714023 13.2364158,69.8714023 Z" id="Path"></path>
                    </g>
                </g>
            </g>
        </g>
    </g>
</svg>