<?xml version="1.0" encoding="UTF-8"?>
<svg width="168px" height="167px" viewBox="0 0 168 167" version="1.1" xmlns="http://www.w3.org/2000/svg" xmlns:xlink="http://www.w3.org/1999/xlink">
    <!-- Generator: Sketch 52.5 (67469) - http://www.bohemiancoding.com/sketch -->
    <title>Group 6</title>
    <desc>Created with Sketch.</desc>
    <g id="Page-1" stroke="none" stroke-width="1" fill="none" fill-rule="evenodd">
        <g id="Courses-Theme1" transform="translate(-485.000000, -1299.000000)">
            <g id="Group-6" transform="translate(485.000000, 1299.000000)">
                <ellipse id="Oval-Copy" fill="#52B0CC" fill-rule="nonzero" cx="84" cy="83.5" rx="84" ry="83.5"></ellipse>
                <g id="noun_Class_798372" opacity="0.799502418" transform="translate(34.000000, 34.000000)" fill="#FFFFFF" stroke="#FFFFFF">
                    <g id="Group">
                        <path d="M84.1,43.7 C80.5,43.7 77.5,40.7 77.5,37.1 C77.5,33.5 80.5,30.5 84.1,30.5 C87.7,30.5 90.7,33.5 90.7,37.1 C90.7,40.8 87.7,43.7 84.1,43.7 Z M84.1,33 C81.8,33 80,34.8 80,37.1 C80,39.4 81.8,41.2 84.1,41.2 C86.4,41.2 88.2,39.4 88.2,37.1 C88.2,34.8 86.3,33 84.1,33 Z" id="Shape" fill-rule="nonzero"></path>
                        <path d="M89.2,69.2 L78.7,69.2 C78.2,69.2 77.8,69 77.4,68.6 C77.1,68.3 76.9,67.8 76.9,67.3 L77.7,53.2 C77.7,52.9 77.5,52.5 77.2,52.4 L63.7,46.4 C62.2,45.7 61.4,44 61.9,42.4 C62.2,41.6 62.7,40.9 63.5,40.5 C64.3,40.1 65.2,40 66,40.3 C76.4,43.7 80.8,45.1 81.4,45.1 L86.6,45.1 C88.9,45.1 90.8,47 90.8,49.4 L90.8,67.4 C91,68.4 90.2,69.2 89.2,69.2 Z M79.5,66.7 L88.5,66.7 L88.5,49.5 C88.5,48.5 87.7,47.7 86.8,47.7 L81.5,47.7 C81.2,47.7 80.5,47.7 65.4,42.7 C65.2,42.6 65,42.7 64.8,42.7 C64.6,42.8 64.5,43 64.4,43.2 C64.3,43.6 64.5,44 64.8,44.1 L78.3,50.1 C79.6,50.7 80.3,52 80.3,53.3 L79.5,66.7 Z" id="Shape" fill-rule="nonzero"></path>
                        <path d="M84.9,100 L83.1,100 C81.5,100 80.3,98.5 80.3,97.2 L77.8,73.4 C77.7,72.3 78.1,71.7 78.4,71.3 C78.8,70.9 79.3,70.7 79.8,70.7 L88.2,70.7 C88.8,70.7 89.3,70.9 89.7,71.4 C90.1,71.8 90.3,72.4 90.2,73 L87.6,96.9 C87.6,98.5 86.4,100 84.9,100 Z M80.3,73.2 L82.7,97 C82.7,97.2 82.9,97.5 83,97.5 L84.8,97.5 C84.9,97.5 85.1,97.2 85.1,96.7 L87.6,73.2 L80.3,73.2 Z" id="Shape" fill-rule="nonzero"></path>
                        <path d="M78.6,7.4 L8.5,7.4 C7.8,7.4 7.2,6.8 7.2,6.1 L7.2,1.3 C7.3,0.6 7.8,0 8.5,0 L78.6,0 C79.3,0 79.9,0.6 79.9,1.3 L79.9,6.2 C79.8,6.8 79.3,7.4 78.6,7.4 Z M9.8,4.9 L77.4,4.9 L77.4,2.5 L9.8,2.5 L9.8,4.9 Z" id="Shape" fill-rule="nonzero"></path>
                        <path d="M73.6,58.2 L13.5,58.2 C12.8,58.2 12.2,57.6 12.2,56.9 L12.2,6.3 C12.2,5.6 12.8,5 13.5,5 L73.6,5 C74.3,5 74.9,5.6 74.9,6.3 L74.9,43.7 C74.9,44.4 74.3,45 73.6,45 C72.9,45 72.3,44.4 72.3,43.7 L72.3,7.5 L14.7,7.5 L14.7,55.7 L72.3,55.7 L72.3,49.5 C72.3,48.8 72.9,48.2 73.6,48.2 C74.3,48.2 74.9,48.8 74.9,49.5 L74.9,57 C74.8,57.7 74.2,58.2 73.6,58.2 Z" id="Path"></path>
                        <path d="M1.3,77.7 C1,77.7 0.6,77.6 0.4,77.3 C0.1,77.1 0,76.7 0,76.4 L0,12.7 C0,12 0.6,11.4 1.3,11.4 L13.3,11.4 C14,11.4 14.6,12 14.6,12.7 C14.6,13.4 14,14 13.3,14 L2.5,14 L2.5,75.2 L12.9,75.2 C13.6,75.2 14.2,75.8 14.2,76.5 C14.2,77.2 13.6,77.8 12.9,77.8 L1.3,77.7 Z" id="Path"></path>
                        <path d="M35.4,77.7 L23.7,77.7 C23,77.7 22.4,77.1 22.4,76.4 C22.4,75.7 23,75.1 23.7,75.1 L35.4,75.1 C36.1,75.1 36.7,75.7 36.7,76.4 C36.7,77.1 36.1,77.7 35.4,77.7 Z" id="Path"></path>
                        <path d="M57.9,77.7 L46.4,77.7 C45.7,77.7 45.1,77.1 45.1,76.4 C45.1,75.7 45.7,75.1 46.4,75.1 L57.9,75.1 C58.6,75.1 59.2,75.7 59.2,76.4 C59.2,77.1 58.6,77.7 57.9,77.7 Z" id="Path"></path>
                        <path d="M79.2,77.7 L68.8,77.7 C68.1,77.7 67.5,77.1 67.5,76.4 C67.5,75.7 68.1,75.1 68.8,75.1 L79.2,75.1 C79.9,75.1 80.5,75.7 80.5,76.4 C80.5,77.1 79.9,77.7 79.2,77.7 Z" id="Path"></path>
                        <path d="M79.3,77.7 L79.1,77.7 C78.4,77.7 77.8,77.1 77.8,76.4 C77.8,75.7 78.4,75.1 79.1,75.1 C79.8,75.1 80.4,75.7 80.4,76.4 C80.4,77.1 80,77.7 79.3,77.7 Z" id="Path"></path>
                        <path d="M98.7,77.7 L89.9,77.7 C89.2,77.7 88.6,77.1 88.6,76.4 C88.6,75.7 89.2,75.1 89.9,75.1 L97.5,75.1 L97.5,14 L73.9,14 C73.2,14 72.6,13.4 72.6,12.7 C72.6,12 73.2,11.4 73.9,11.4 L98.8,11.4 C99.5,11.4 100.1,12 100.1,12.7 L100.1,76.4 C100,77.1 99.4,77.7 98.7,77.7 Z" id="Path"></path>
                        <path d="M18.3,82.9 C14.7,82.9 11.7,79.9 11.7,76.3 C11.7,72.7 14.7,69.7 18.3,69.7 C21.9,69.7 24.9,72.7 24.9,76.3 C24.9,79.9 21.9,82.9 18.3,82.9 Z M18.3,72.2 C16,72.2 14.2,74 14.2,76.3 C14.2,78.6 16,80.4 18.3,80.4 C20.6,80.4 22.4,78.6 22.4,76.3 C22.4,74 20.5,72.2 18.3,72.2 Z" id="Shape" fill-rule="nonzero"></path>
                        <path d="M63.3,82.9 C59.7,82.9 56.7,79.9 56.7,76.3 C56.7,72.7 59.7,69.7 63.3,69.7 C66.9,69.7 69.9,72.7 69.9,76.3 C69.9,79.9 66.9,82.9 63.3,82.9 Z M63.3,72.2 C61,72.2 59.2,74 59.2,76.3 C59.2,78.6 61,80.4 63.3,80.4 C65.6,80.4 67.4,78.6 67.4,76.3 C67.4,74 65.5,72.2 63.3,72.2 Z" id="Shape" fill-rule="nonzero"></path>
                        <path d="M40.8,82.9 C37.2,82.9 34.2,79.9 34.2,76.3 C34.2,72.7 37.2,69.7 40.8,69.7 C44.4,69.7 47.4,72.7 47.4,76.3 C47.4,79.9 44.5,82.9 40.8,82.9 Z M40.8,72.2 C38.5,72.2 36.7,74 36.7,76.3 C36.7,78.6 38.5,80.4 40.8,80.4 C43.1,80.4 44.9,78.6 44.9,76.3 C44.9,74 43.1,72.2 40.8,72.2 Z" id="Shape" fill-rule="nonzero"></path>
                        <path d="M25.5,99.9 L10.2,99.9 C9.5,99.9 8.9,99.3 8.9,98.6 L8.9,90.4 C8.9,87.3 11.4,84.8 14.5,84.8 L21.1,84.8 C24.2,84.8 26.7,87.3 26.7,90.4 L26.7,98.6 C26.8,99.3 26.2,99.9 25.5,99.9 Z M11.4,97.4 L24.2,97.4 L24.2,90.4 C24.2,88.7 22.8,87.3 21.1,87.3 L14.5,87.3 C12.8,87.3 11.4,88.7 11.4,90.4 L11.4,97.4 Z" id="Shape" fill-rule="nonzero"></path>
                        <path d="M48.5,100 L33.2,100 C32.5,100 31.9,99.4 31.9,98.7 L31.9,90.5 C31.9,87.4 34.4,84.9 37.5,84.9 L44.1,84.9 C47.2,84.9 49.7,87.4 49.7,90.5 L49.7,98.7 C49.8,99.4 49.2,100 48.5,100 Z M34.4,97.5 L47.2,97.5 L47.2,90.5 C47.2,88.8 45.8,87.4 44.1,87.4 L37.5,87.4 C35.8,87.4 34.4,88.8 34.4,90.5 L34.4,97.5 Z" id="Shape" fill-rule="nonzero"></path>
                        <path d="M71.1,100 L55.8,100 C55.1,100 54.5,99.4 54.5,98.7 L54.5,90.5 C54.5,87.4 57,84.9 60.1,84.9 L66.7,84.9 C69.8,84.9 72.3,87.4 72.3,90.5 L72.3,98.7 C72.4,99.4 71.8,100 71.1,100 Z M57,97.5 L69.8,97.5 L69.8,90.5 C69.8,88.8 68.4,87.4 66.7,87.4 L60.1,87.4 C58.4,87.4 57,88.8 57,90.5 L57,97.5 Z" id="Shape" fill-rule="nonzero"></path>
                    </g>
                </g>
            </g>
        </g>
    </g>
</svg>