<?xml version="1.0" encoding="UTF-8"?>
<svg width="168px" height="167px" viewBox="0 0 168 167" version="1.1" xmlns="http://www.w3.org/2000/svg" xmlns:xlink="http://www.w3.org/1999/xlink">
    <!-- Generator: Sketch 52.5 (67469) - http://www.bohemiancoding.com/sketch -->
    <title>Group 7</title>
    <desc>Created with Sketch.</desc>
    <g id="Page-1" stroke="none" stroke-width="1" fill="none" fill-rule="evenodd">
        <g id="Courses-Theme1" transform="translate(-791.000000, -1299.000000)">
            <g id="Group-7" transform="translate(791.000000, 1299.000000)">
                <ellipse id="Oval-Copy-2" fill="#52B0CC" fill-rule="nonzero" cx="84" cy="83.5" rx="84" ry="83.5"></ellipse>
                <g id="noun_Conversation_1429967" transform="translate(31.000000, 28.000000)" fill="#FFFFFF">
                    <path d="M62.944208,79.950547 C59.1315814,76.9564438 58.3915672,71.3978963 61.2837895,67.4784692 C62.1947403,66.2418195 61.9485831,64.48744 60.7339821,63.5599528 C59.5193811,62.6324656 57.7962809,62.8830912 56.8853301,64.1197408 C52.1542315,70.5027183 53.3670394,79.576425 59.6013788,84.4400472 C60.8159798,85.3675344 62.53908,85.1169088 63.4500308,83.8802592 C64.3609816,82.6436095 64.1148244,80.88923 62.9002234,79.9617428 L62.944208,79.950547 Z" id="Path"></path>
                    <path d="M54.9481025,88.8175802 C50.9961231,85.6994767 48.4000607,81.0790851 47.7314606,75.9736241 C47.0628604,70.8681632 48.3765379,65.696205 51.3832755,61.5964003 C52.3004182,60.3271861 52.0525878,58.5266086 50.8297309,57.574698 C49.6068741,56.6227873 47.8720617,56.8800127 46.954919,58.1492269 C43.057904,63.4616979 41.3548463,70.1638692 42.2207107,76.7801134 C43.0865751,83.3963575 46.4503691,89.384205 51.5714806,93.425302 C52.7943375,94.3772127 54.5291499,94.1199873 55.4462926,92.8507731 C56.3634352,91.5815589 56.1156049,89.7809814 54.892748,88.8290707 L54.9481025,88.8175802 Z" id="Path"></path>
                    <path d="M103.741049,0.0282142994 C88.5008676,2.22194724 79.1692223,11.3510755 76.7402831,26.4329895 C76.5043883,27.9807899 76.3572762,29.5411021 76.2996849,31.1060977 C76.0143416,36.315216 72.9985314,40.9730932 68.3915108,43.3201629 C67.020023,43.9549357 65.8475397,44.9589121 65.0022934,46.2222887 C63.4315869,48.8254014 63.7297807,52.1613443 65.7366239,54.4373616 C67.2550001,56.1078875 69.139315,57.3953209 71.2384535,58.1964144 L70.9108291,64.9604243 C70.8484213,66.2333351 71.6273734,67.3940558 72.8200883,67.8054217 C76.470599,68.9599986 80.2821479,69.5079332 84.1061823,69.42787 C83.0894171,71.6444544 80.7169649,73.1412201 77.2599631,73.7696332 C75.9717054,74.0023127 74.8366798,74.7652127 74.1256706,75.8763273 C73.4146615,76.9874418 73.1914287,78.3471314 73.5092292,79.6310134 L73.8707457,81.0820763 C74.0858406,81.9908599 74.1808135,82.9244804 74.1531805,83.8585196 C73.242195,86.6252872 73.558056,89.6552409 75.0195202,92.1690405 C76.4809844,94.68284 78.9454108,96.4351351 81.7789197,96.9752145 C87.3731785,98.0004013 93.0926073,98.1238015 98.7250068,97.3408366 L98.7250068,109.143577 C98.7250068,110.721136 99.9895105,112 101.549355,112 C103.109199,112 104.373703,110.721136 104.373703,109.143577 L104.373703,94.0045344 C104.377278,93.1446868 103.997673,92.3289573 103.340241,91.7837406 C102.682809,91.2385239 101.817506,91.0218355 100.984485,91.1938141 C94.9841107,92.3871441 88.8170021,92.4452541 82.7956849,91.3651995 C81.5485581,91.1371366 80.4672587,90.3578042 79.8470658,89.2400207 C79.2096475,88.1169126 79.093925,86.76681 79.5307388,85.5495221 C79.5724198,85.4338874 79.6063882,85.3155565 79.6324153,85.1953256 C79.8894848,83.3615482 79.7897038,81.4946351 79.3386831,79.6995675 L79.2144118,79.1854114 C86.5464189,77.528686 88.975358,72.9812604 89.7774728,70.3419254 C90.2588248,68.7553452 89.9515566,67.0312787 88.9527633,65.71452 C87.926291,64.388141 86.3355763,63.636811 84.6710519,63.6921725 C82.0151488,63.7831846 79.3584278,63.5375259 76.7628779,62.9609281 L77.0792049,56.3454522 C77.1429256,55.0115881 76.2843309,53.8110887 75.0117822,53.454752 C73.1295179,53.0294909 71.4079026,52.0657014 70.0522274,50.6783088 C69.6657012,50.2641087 69.6096816,49.6361741 69.9166587,49.1586917 C70.3012507,48.7927139 70.7443478,48.4952488 71.2271561,48.2789134 C77.5326907,44.9722488 81.6214527,38.5213417 81.959678,31.3460372 C82.0074814,29.9992945 82.131959,28.6564552 82.3324919,27.3241935 C84.3660223,14.6531006 91.630245,7.5691713 104.543163,5.74106051 C106.103008,5.52020222 107.190481,4.06229707 106.972103,2.48473818 C106.753724,0.907179295 105.31219,-0.192643898 103.752346,0.0282142994 L103.741049,0.0282142994 Z" id="Path"></path>
                    <path d="M86,37.5 C86,39.4329966 87.5670034,41 89.5,41 C91.4329966,41 93,39.4329966 93,37.5 C93,35.5670034 91.4329966,34 89.5,34 C87.5670034,34 86,35.5670034 86,37.5 Z" id="Path"></path>
                    <path d="M42.0222722,46.2565658 C41.1759028,44.9837003 40.0007336,43.968324 38.6237587,43.3201629 C34.0307159,40.9661724 31.0332036,36.3180161 30.7618642,31.1289491 C30.7048798,29.5639025 30.5573599,28.0035456 30.3200575,26.4558409 C27.8957845,11.3739269 18.5385441,2.24479863 3.25656177,0.0282143054 C1.69243914,-0.192643918 0.246951174,0.907179278 0.0279740063,2.48473818 C-0.191003161,4.06229708 0.899452672,5.52020224 2.46357529,5.74106051 C15.4119117,7.59202269 22.6960589,14.6873777 24.735167,27.4498761 C24.9368019,28.7820694 25.0616238,30.1249409 25.1090035,31.4717198 C25.479851,38.6378986 29.5942706,45.0669875 35.9162763,48.3588932 C36.3801374,48.566391 36.8054132,48.8523437 37.1737263,49.2043945 C37.4611265,49.6691425 37.410382,50.2693487 37.0491142,50.6783088 C35.6897205,52.0657014 33.9633831,53.0294909 32.0759561,53.4547521 C30.799917,53.8110887 29.9389674,55.0115881 30.0028629,56.3454522 L30.3200575,62.9609281 C27.716991,63.5349348 25.0533054,63.7805639 22.3901927,63.6921725 C20.7214809,63.6386705 19.127196,64.389627 18.0967373,65.71452 C17.0953519,67.0360141 16.79132,68.7651434 17.2810941,70.3533511 C18.0854089,72.9926861 20.5210103,77.5401117 27.8731278,79.1968371 L27.7485156,79.7109932 C27.303526,81.5075179 27.2111657,83.374473 27.4766345,85.2067513 C27.5034541,85.3230529 27.5375066,85.4375363 27.5785899,85.5495221 C28.0150348,86.7670175 27.8990536,88.1164362 27.2613953,89.2400207 C26.6382912,90.356708 25.5546037,91.1356252 24.3046886,91.3651995 C18.2668341,92.44499 12.0828587,92.3868804 6.06599958,91.1938141 C5.23069402,91.0218355 4.3630176,91.2385239 3.70378226,91.7837406 C3.04454692,92.3289573 2.66390043,93.1446868 2.6674861,94.0045344 L2.6674861,109.143577 C2.6674861,110.721136 3.93545803,112 5.49958067,112 C7.06370331,112 8.33167524,110.721136 8.33167524,109.143577 L8.33167524,97.3522623 C13.9794905,98.1358043 19.7146972,98.0124022 25.3242426,96.9866402 C28.1655234,96.4465608 30.6367093,94.6942657 32.1021821,92.1804661 C33.5676548,89.6666666 33.8843821,86.6367129 32.970898,83.8699453 C32.9425173,82.9358816 33.0377599,82.0021716 33.2541074,81.093502 L33.6166155,79.6424391 C33.9352877,78.3585571 33.7114426,76.9988675 32.9984833,75.887753 C32.2855239,74.7766384 31.1473852,74.0137384 29.855594,73.7810589 C26.3437967,73.1526458 24.0214791,71.6444544 22.9452832,69.4278701 C26.728212,69.4946856 30.49788,68.9586967 34.1150642,67.8396988 C35.3110505,67.4283329 36.0921391,66.2676122 36.0295601,64.9947014 L35.7010371,58.2306915 C37.806323,57.430358 39.6959701,56.142813 41.2179574,54.4716387 C43.2521804,52.2114749 43.5789074,48.8743667 42.0222722,46.2565658 Z" id="Path"></path>
                    <path d="M19,37.5 C19,35.5670034 17.4329966,34 15.5,34 C13.5670034,34 12,35.5670034 12,37.5 C12,39.4329966 13.5670034,41 15.5,41 C17.4329966,41 19,39.4329966 19,37.5 Z" id="Path"></path>
                </g>
            </g>
        </g>
    </g>
</svg>