<?xml version="1.0" encoding="UTF-8"?>
<svg width="150px" height="150px" viewBox="0 0 150 150" version="1.1" xmlns="http://www.w3.org/2000/svg" xmlns:xlink="http://www.w3.org/1999/xlink">
    <!-- Generator: Sketch 52.5 (67469) - http://www.bohemiancoding.com/sketch -->
    <title>Group 5</title>
    <desc>Created with Sketch.</desc>
    <g id="Page-1" stroke="none" stroke-width="1" fill="none" fill-rule="evenodd">
        <g id="Courses-Problem-solving-Copy-2" transform="translate(-244.000000, -2106.000000)">
            <g id="Innovation-Labs" transform="translate(135.000000, 2082.000000)">
                <g id="Group-7-Copy">
                    <g id="Group" transform="translate(27.000000, 24.000000)">
                        <g id="Group-5" transform="translate(82.000000, 0.000000)">
                            <g id="Icon-placeholder" fill="#52B0CC" fill-rule="nonzero">
                                <rect id="Rectangle" x="0" y="0" width="150" height="150" rx="75"></rect>
                            </g>
                            <g id="noun_atom_1792991" transform="translate(32.000000, 27.000000)" fill="#FFFFFF">
                                <g id="Group">
                                    <path d="M74.9,48 C83.7,38.9 87.5,30.1 84.1,24.2 C80.7,18.3 71.2,17.2 58.9,20.3 C55.5,8.2 49.8,0.5 43,0.5 C36.2,0.5 30.5,8.2 27,20.4 C14.7,17.3 5.2,18.4 1.8,24.3 C-1.5,30.1 2.3,38.9 11.1,48 C2.3,57.1 -1.5,65.9 1.9,71.8 C4.1,75.6 8.8,77.4 15.1,77.4 C18.6,77.4 22.7,76.8 27.1,75.7 C30.5,87.9 36.3,95.6 43.1,95.6 C49.9,95.6 55.6,87.9 59.1,75.7 C63.5,76.8 67.5,77.4 71.1,77.4 C77.4,77.4 82.1,75.6 84.3,71.8 C87.5,65.9 83.7,57.1 74.9,48 Z M71.1,23.1 C75.8,23.1 79.1,24.3 80.4,26.5 C82.5,30.2 79.3,37.2 71.8,45 C68.9,42.4 65.6,39.7 62,37.2 C61.6,32.8 61,28.6 60.1,24.8 C64.2,23.6 68,23.1 71.1,23.1 Z M50.5,61 C47.9,62.5 45.4,63.8 43,65 C40.5,63.8 38,62.5 35.5,61 C32.9,59.5 30.6,58 28.3,56.5 C28.1,53.8 28,50.9 28,48 C28,45.1 28.1,42.2 28.3,39.5 C30.6,38 33,36.4 35.5,35 C38.1,33.5 40.6,32.2 43,31.1 C45.5,32.3 48,33.6 50.5,35 C53.1,36.5 55.4,38 57.7,39.5 C57.9,42.2 58,45.1 58,48 C58,50.9 57.9,53.8 57.7,56.5 C55.5,58 53.1,59.5 50.5,61 Z M57.2,62.1 C56.8,65 56.4,67.6 55.8,70.2 C53.3,69.4 50.8,68.5 48.1,67.4 C49.6,66.6 51.2,65.8 52.7,64.9 C54.2,63.9 55.7,63 57.2,62.1 Z M37.9,67.3 C35.2,68.4 32.7,69.4 30.2,70.1 C29.6,67.6 29.2,64.9 28.8,62 C30.2,62.9 31.7,63.8 33.3,64.7 C34.8,65.7 36.4,66.5 37.9,67.3 Z M23.7,53.2 C21.4,51.5 19.3,49.7 17.4,48 C19.3,46.3 21.4,44.5 23.7,42.8 C23.6,44.5 23.6,46.3 23.6,48 C23.6,49.7 23.7,51.5 23.7,53.2 Z M33.3,31.2 C31.8,32.1 30.3,33 28.8,33.9 C29.2,31 29.6,28.4 30.2,25.8 C32.6,26.6 35.2,27.5 37.8,28.6 C36.3,29.5 34.8,30.3 33.3,31.2 Z M48.1,28.7 C50.7,27.6 53.3,26.6 55.7,25.9 C56.3,28.4 56.7,31.1 57.1,34 C55.7,33.1 54.2,32.2 52.6,31.3 C51.2,30.3 49.6,29.5 48.1,28.7 Z M62.3,42.8 C64.6,44.5 66.7,46.3 68.6,48 C66.7,49.7 64.6,51.5 62.3,53.2 C62.4,51.5 62.4,49.7 62.4,48 C62.4,46.3 62.3,44.5 62.3,42.8 Z M43,4.9 C47.2,4.9 51.7,11.2 54.7,21.6 C51,22.8 47,24.3 43,26.2 C39,24.3 35,22.8 31.3,21.6 C34.3,11.2 38.8,4.9 43,4.9 Z M5.6,26.4 C6.9,24.2 10.2,23 14.9,23 C18,23 21.8,23.5 26,24.6 C25.2,28.4 24.5,32.6 24.1,37 C20.5,39.6 17.1,42.2 14.3,44.8 C6.7,37.1 3.5,30.1 5.6,26.4 Z M5.6,69.6 C3.5,65.9 6.7,58.9 14.2,51.1 C17.1,53.7 20.4,56.4 24,58.9 C24.4,63.3 25,67.5 25.9,71.3 C15.5,74 7.7,73.2 5.6,69.6 Z M43,91.1 C38.8,91.1 34.3,84.8 31.3,74.4 C35,73.2 39,71.7 43,69.8 C47,71.7 51,73.2 54.7,74.4 C51.7,84.8 47.2,91.1 43,91.1 Z M80.4,69.6 C78.3,73.3 70.6,74 60.1,71.4 C60.9,67.6 61.6,63.4 62,59 C65.6,56.4 69,53.8 71.8,51.2 C79.3,58.9 82.5,65.9 80.4,69.6 Z" id="Shape" fill-rule="nonzero"></path>
                                    <circle id="Oval" cx="43" cy="48" r="5.7"></circle>
                                </g>
                            </g>
                        </g>
                    </g>
                </g>
            </g>
        </g>
    </g>
</svg>