<?xml version="1.0" encoding="UTF-8"?>
<svg width="150px" height="150px" viewBox="0 0 150 150" version="1.1" xmlns="http://www.w3.org/2000/svg" xmlns:xlink="http://www.w3.org/1999/xlink">
    <!-- Generator: Sketch 52.5 (67469) - http://www.bohemiancoding.com/sketch -->
    <title>Group 11</title>
    <desc>Created with Sketch.</desc>
    <g id="Page-1" stroke="none" stroke-width="1" fill="none" fill-rule="evenodd">
        <g id="Courses-Problem-solving-Copy-2" transform="translate(-845.000000, -2647.000000)" fill-rule="nonzero">
            <g id="Space-for-though-lounge" transform="translate(736.000000, 2623.000000)">
                <g id="Group-7">
                    <g id="Group" transform="translate(27.000000, 24.000000)">
                        <g id="Group-11" transform="translate(82.000000, 0.000000)">
                            <g id="Icon-placeholder" fill="#52B0CC">
                                <rect id="Rectangle" x="0" y="0" width="150" height="150" rx="75"></rect>
                            </g>
                            <g id="noun_creative_1912221" transform="translate(34.000000, 27.000000)" fill="#FFFFFF">
                                <path d="M80.8,49.1 L71.8,35.4 C71.3,34.6 71.1,33.7 71,32.7 C69.4,14.7 54.3,0.5 35.9,0.5 C16.4,0.5 0.6,16.3 0.6,35.8 C0.6,47.4 6.2,58.7 14.8,66.1 C15.8,67 16.5,68.2 16.5,69.6 L16.5,89.8 C16.5,91.4 17.7,92.7 19.3,92.9 L49.6,95.6 C51.4,95.8 52.9,94.3 52.9,92.5 L52.9,78.1 C52.9,77.2 53.7,76.4 54.6,76.4 L65.2,76.4 C68.5,76.4 71.1,73.8 71.1,70.5 L71.1,56.3 C71.1,55.7 71.6,55.1 72.3,55.1 L77.5,55.1 C80.6,55.2 82.5,51.7 80.8,49.1 Z M33.9,16 C33.9,14.7 34.9,13.7 36.2,13.7 C37.5,13.7 38.5,14.7 38.5,16 L38.5,19.7 C38.5,21 37.5,22 36.2,22 C34.9,22 33.9,21 33.9,19.7 L33.9,16 Z M18.9,39.4 L15.2,39.4 C13.9,39.4 12.9,38.4 12.9,37.1 C12.9,35.8 13.9,34.8 15.2,34.8 L18.9,34.8 C20.2,34.8 21.2,35.8 21.2,37.1 C21.2,38.4 20.1,39.4 18.9,39.4 Z M25.6,26.4 C25.2,26.8 24.6,27.1 23.9,27.1 C23.3,27.1 22.7,26.9 22.3,26.4 L19.7,23.8 C19.3,23.4 19,22.8 19,22.2 C19,21.6 19.2,21 19.7,20.5 C20.6,19.6 22.1,19.6 23,20.5 L25.6,23.1 C26,23.5 26.3,24.1 26.3,24.7 C26.3,25.4 26,26 25.6,26.4 Z M41,51.8 C41,52.7 40.3,53.4 39.5,53.4 L33.2,53.4 C32.3,53.4 31.6,52.7 31.6,51.8 L31.6,47.5 L41,47.5 L41,51.8 Z M41.1,45 L31.2,45 C28.6,43.3 27,40.1 27.4,36.7 C27.8,32.9 30.8,29.8 34.5,29.1 C40.1,28.1 45,32.3 45,37.7 C44.9,40.7 43.4,43.4 41.1,45 Z M48.6,27.1 C48,27.1 47.4,26.9 47,26.4 C46.6,26 46.3,25.4 46.3,24.7 C46.3,24.1 46.5,23.5 47,23 L49.6,20.4 C50.5,19.5 52,19.5 52.9,20.4 C53.3,20.8 53.6,21.4 53.6,22.1 C53.6,22.8 53.4,23.3 52.9,23.8 L50.3,26.4 C49.8,26.9 49.2,27.1 48.6,27.1 Z M57.3,39.4 L53.6,39.4 C52.3,39.4 51.3,38.4 51.3,37.1 C51.3,35.8 52.3,34.8 53.6,34.8 L57.3,34.8 C58.6,34.8 59.6,35.8 59.6,37.1 C59.6,38.4 58.6,39.4 57.3,39.4 Z" id="Shape"></path>
                            </g>
                        </g>
                    </g>
                </g>
            </g>
        </g>
    </g>
</svg>